<?xml version="1.0" encoding="utf-8"?>
<!-- Generator: Adobe Illustrator 23.1.1, SVG Export Plug-In . SVG Version: 6.00 Build 0)  -->
<svg version="1.1" id="ee1442bd-1906-4669-896c-455205bcea2c"
	 xmlns="http://www.w3.org/2000/svg" xmlns:xlink="http://www.w3.org/1999/xlink" x="0px" y="0px" viewBox="0 0 1013.9 503"
	 style="enable-background:new 0 0 1013.9 503;" xml:space="preserve">
<style type="text/css">
	.st0{fill:#005AD4;}
	.st1{fill:#F2F2F2;}
	.st2{fill:#3F3D56;}
	.st3{fill:#11AB7C;}
	.st4{opacity:0.1;fill:#F2F2F2;enable-background:new    ;}
	.st5{fill:#FF6584;}
	.st6{opacity:0.1;enable-background:new    ;}
</style>
<title>moonlight</title>
<path class="st0" d="M507,0C228.3,0,2.2,224.8,0,503h1013.9C1011.8,224.8,785.6,0,507,0z"/>
<circle class="st1" cx="480.8" cy="52.5" r="5"/>
<circle class="st1" cx="323.8" cy="217.5" r="2"/>
<circle class="st1" cx="618.8" cy="311.5" r="2"/>
<circle class="st1" cx="97.8" cy="286.5" r="2"/>
<circle class="st1" cx="877.8" cy="215.5" r="2"/>
<circle class="st1" cx="235.8" cy="236.5" r="2"/>
<circle class="st1" cx="563.8" cy="196.5" r="2"/>
<circle class="st1" cx="629.8" cy="52.5" r="2"/>
<rect x="211.8" y="288.5" class="st1" width="2" height="1"/>
<rect x="270.8" y="135.5" class="st1" width="2" height="1"/>
<rect x="414.8" y="249.5" class="st1" width="2" height="1"/>
<rect x="796.8" y="293.5" class="st1" width="2" height="1"/>
<rect x="677.8" y="140.5" class="st1" width="2" height="1"/>
<rect x="225.1" y="363.7" class="st2" width="3.5" height="139"/>
<path class="st2" d="M261.1,339.4c0.2,48.6-34,88.2-34,88.2s-34.6-39.2-34.8-87.9s34-88.2,34-88.2S260.9,290.8,261.1,339.4z"/>
<rect x="180.6" y="322.5" class="st2" width="4.6" height="180.2"/>
<path class="st2" d="M227.3,303.4c0.3,63-44,114.3-44,114.3s-44.8-50.9-45.1-113.9s44-114.3,44-114.3S227,240.4,227.3,303.4z"/>
<rect x="712.1" y="363.7" class="st3" width="3.5" height="139"/>
<path class="st2" d="M748.1,381.4c0.2,48.6-34,88.2-34,88.2s-34.6-39.2-34.8-87.9c-0.2-48.6,34-88.2,34-88.2
	S747.9,332.8,748.1,381.4z"/>
<rect x="141.1" y="363.7" class="st2" width="3.5" height="139"/>
<path class="st2" d="M177.1,339.4c0.2,48.6-34,88.2-34,88.2s-34.6-39.2-34.8-87.9s34-88.2,34-88.2S176.9,290.8,177.1,339.4z"/>
<rect x="451.1" y="363.7" class="st2" width="3.5" height="139"/>
<path class="st2" d="M487.1,339.4c0.2,48.6-34,88.2-34,88.2s-34.6-39.2-34.8-87.9s34-88.2,34-88.2S486.9,290.8,487.1,339.4z"/>
<rect x="406.6" y="322.5" class="st2" width="4.6" height="180.2"/>
<path class="st2" d="M453.3,303.4c0.3,63-44,114.3-44,114.3s-44.8-50.9-45.1-113.9s44-114.3,44-114.3S453,240.4,453.3,303.4z"/>
<rect x="367.1" y="363.7" class="st2" width="3.5" height="139"/>
<path class="st2" d="M403.1,339.4c0.2,48.6-34,88.2-34,88.2s-34.6-39.2-34.8-87.9s34-88.2,34-88.2S402.9,290.8,403.1,339.4z"/>
<path class="st3" d="M738.4,428.4l-58.8-54.1c-0.2,2.4-0.2,4.9-0.2,7.4c0.2,48.6,34.8,87.9,34.8,87.9
	C724.2,457.1,732.3,443.2,738.4,428.4z"/>
<path class="st2" d="M300.6,490.3c2,7.4,8.9,12.1,8.9,12.1s3.6-7.5,1.6-14.9s-8.9-12.1-8.9-12.1S298.6,482.8,300.6,490.3z"/>
<path class="st2" d="M303.6,488.7c5.5,5.4,6.2,13.7,6.2,13.7s-8.3-0.5-13.8-5.8s-6.2-13.7-6.2-13.7S298.1,483.3,303.6,488.7z"/>
<path class="st3" d="M584.6,490.3c2,7.4,8.9,12.1,8.9,12.1s3.6-7.5,1.6-14.9c-2-7.4-8.9-12.1-8.9-12.1S582.6,482.8,584.6,490.3z"/>
<path class="st3" d="M587.6,488.7c5.5,5.4,6.2,13.7,6.2,13.7s-8.3-0.5-13.8-5.8c-5.5-5.4-6.2-13.7-6.2-13.7S582.1,483.3,587.6,488.7
	z"/>
<path class="st2" d="M76.6,490.3c2,7.4,8.9,12.1,8.9,12.1s3.6-7.5,1.6-14.9s-8.9-12.1-8.9-12.1S74.6,482.8,76.6,490.3z"/>
<path class="st2" d="M79.6,488.7c5.5,5.4,6.2,13.7,6.2,13.7s-8.3-0.5-13.8-5.8s-6.2-13.7-6.2-13.7S74.1,483.3,79.6,488.7z"/>
<path class="st3" d="M387.3,220.7l96.5,145.7c2.2-8.8,3.2-17.9,3.2-27c-0.1-23.7-8.4-45.2-16.8-61l-4.5,1.1l4.2-1.6
	c-5-9.4-10.9-18.2-17.7-26.4c0,0-2.5,2.9-6.1,8c-12.7-41.1-38.1-70-38.1-70C400.3,199.2,393.3,209.7,387.3,220.7z"/>
<path class="st4" d="M942.6,496.8c1.6,0,2.9-1.3,2.9-2.9s-1.3-2.9-2.9-2.9H919c1.6,3.2,0.3,7-2.9,8.6c0,1.6,1.3,2.9,2.9,2.9l0,0
	h23.7c1.6,0,2.9-1.3,2.9-2.9S944.2,496.8,942.6,496.8L942.6,496.8z"/>
<path class="st2" d="M886.4,490.9c0.4,15.7-9.1,11.7-20.6,11.7s-21,2-21.1-11.7c0-6.7,9.4-8.2,20.9-8.2
	C877.1,482.6,886.2,484.1,886.4,490.9z"/>
<path class="st2" d="M913.3,497.1c-0.2-0.1-0.4-0.2-0.6-0.2c-1-0.2-2.1-0.4-3.1-0.7c-1-0.3-2-0.8-2.7-1.5c-0.3-0.3-0.6-0.7-1-0.9
	c-0.4-0.3-0.9-0.3-1.3-0.1c0,0-0.1,0.1-0.1,0.1c-0.1-0.1-0.3-0.2-0.4-0.3c-0.8-0.5-1.5-1-2.3-1.5l0,0c0-0.1,0-0.2,0-0.4
	c-0.1-0.4-0.4-0.7-0.8-1c1,0,2-0.1,3-0.2c0.9,0,1.8-0.3,2.5-1c0.1-0.1,0.2-0.3,0.2-0.4c0-0.3-0.3-0.5-0.6-0.6
	c-0.4-0.2-0.8-0.3-1.2-0.4c-0.3,0-0.6-0.1-0.8-0.2c-0.2-0.1-0.5-0.2-0.7-0.3c-0.5-0.3-1-0.5-1.5-0.8c-0.2-0.1-0.4-0.2-0.6-0.4
	c-0.2-0.3-0.4-0.6-0.6-0.9c-0.2-0.2-1.2-0.6-1.3-0.1c-0.1,0.2,0.2,0.4,0.2,0.6c-0.3-0.2-0.7-0.4-1-0.6c0,0,0-0.1,0.1-0.1
	c-1.6-1.3-2.9-3-3.8-4.9c0.1,0,0.3,0,0.4,0c0.2,0,0.5,0,0.7-0.2c0.2-0.2,0.3-0.4,0.2-0.6c0-0.2-0.1-0.5-0.2-0.7
	c-0.2-0.6-0.5-1.2-1-1.7c-0.4-0.4-0.9-0.7-1.4-1l-0.1,0c0-0.1-0.1-0.2-0.1-0.3c-0.3-0.7-0.7-1.3-1.1-1.9c-0.6-1-1-2.1-1.2-3.3
	c-0.1-0.7-0.4-1.4-0.8-1.9c-0.8-0.8-2.1-0.8-3.2-0.7c-0.6,0.1-1.3,0.2-1.9,0.3c0,0,0,0,0,0c-0.1-0.2-0.1-0.3-0.1-0.5
	c0-0.1,0-0.3,0.1-0.4c0.1-0.3,0-0.7-0.3-0.9c0,0-0.1-0.1-0.1-0.1c0.1-0.2,0.1-0.3,0.2-0.5c0.1-0.1,0.2-0.3,0.1-0.5
	c0.1-0.4,0.2-0.8,0.2-1.3c-0.1-0.9-0.2-1.9-0.1-2.8c0-0.2-0.1-0.5-0.2-0.7c0,0-0.1,0-0.1-0.1c0.2-0.3,0.4-0.5,0.7-0.7
	c0.5-0.4,1-0.7,1.6-1c0.1-0.1,0.3-0.1,0.4-0.2c0.2,0,0.4,0.1,0.6,0.1c2.5,0,4.5-2,4.5-4.5c0-0.6-0.1-1.1-0.3-1.7
	c0.4-0.1,0.8-0.4,1-0.7c0.2-0.4,0.4-0.8,0.4-1.2c0.1-0.3,0-0.7-0.2-1c-0.2-0.2-0.4-0.3-0.6-0.4c-0.3-0.2-0.5-0.4-0.7-0.7
	c-0.1-0.2-0.2-0.4-0.3-0.7c-0.4-0.8-1.2-1.3-2.1-1.4c-0.4,0.1-0.8,0.1-1.2,0.2c-1.4,0.2-2.9-0.5-4.2,0.1c-0.3,0.2-0.6,0.4-0.9,0.6
	c-0.4,0.3-0.7,0.6-1.1,1c-0.3,0.2-0.5,0.6-0.6,0.9c-0.2,0.7,0.2,1.4,0,2c-0.1,0.2-0.2,0.4-0.3,0.5c-0.3,0.4,0,2.1,0,2.6
	c0,0.3,0,0.5,0.2,0.7c0,0,0.1,0.1,0.1,0.1c-2.2,0.8-4.3,1.7-6.4,2.7c-2.5,1.2-4.6,3.1-5.9,5.5c-0.4,0.7-0.6,1.4-0.9,2.1
	c-0.4,0.9-0.9,1.8-1.4,2.7c-0.6,1.1-1.3,2.2-2,3.2c-0.4,0.5-0.8,1.1-1.1,1.7c0,0.1,0,0.2,0,0.3c0,0.1,0,0.2,0,0.2
	c-0.1,0.1-0.2,0.1-0.3,0.2l0,0c-0.2,0.5-0.3,1.1-0.4,1.6c-0.2,0.9-0.6,1.7-0.7,2.6c-0.2,0.3-0.1,0.7,0.2,0.9
	c0.1,0.1,0.3,0.1,0.5,0.1c0.7,0.3,1.5,0.7,2.2,1.1c0,0.1,0,0.1,0,0.2c0,1.1,0.6,2.2,1.6,2.7c1,0.5,2.1,0.8,3.2,0.9
	c0.4,0.1,0.9,0.1,1.3,0.1c0.6,0.4,1.3,0.6,2,0.8c0.2,0,0.3,0.1,0.5,0.1c0.4,0,0.8-0.3,1.1-0.6c3.7,0.2,7.4,0.1,11.2-0.2
	c1-0.2,2.1-0.1,3,0.5c0.8,0.7,1,1.8,1.6,2.7c0.4,0.5,0.9,1,1.5,1.4c1.1,1.1,2,2.4,2.8,3.7c0.8,1.3,2,2.4,3.4,3.1
	c0.3-0.4,0.6-0.7,1-0.9c0.1-0.1,0.2-0.1,0.3-0.2c0.1,0.2,0.3,0.5,0.5,0.7c0.1,0.2,0.3,0.3,0.4,0.5c0,0,0,0,0,0
	c-0.2,0-0.3,0.3-0.3,0.5c-0.1,0.7-0.2,1.5-0.3,2.2c0,0.1,0,0.3,0,0.4c0.1,0.2,0.2,0.3,0.4,0.3c0.7,0.3,1.4,0.5,2.2,0.6
	c0.4,0,0.8,0,1.2,0c0.6,0.1,1.3,0.2,1.9,0.4c1.7,0.4,3.4,0.5,5.1,0.4c0.4,0,0.7-0.1,1-0.2c0.4-0.2,0.7-0.5,1-0.8
	c0.4-0.3,0.6-0.8,0.8-1.2C913.9,497.9,913.7,497.4,913.3,497.1z"/>
<path class="st5" d="M885.6,446.8c0.2,0,0.3-0.1,0.5-0.1c-0.5-0.1-1.1,0-1.6,0.2C884.9,446.9,885.3,446.9,885.6,446.8z"/>
<path class="st5" d="M889,448c0.1,0.2,0.2,0.4,0.3,0.7c0.2,0.3,0.4,0.5,0.7,0.7c0.2,0.1,0.4,0.2,0.6,0.4c0.2,0.3,0.3,0.6,0.2,1
	c0,0.4-0.2,0.9-0.4,1.2c-0.2,0.4-0.6,0.6-1,0.7c0.9,2.2-0.1,4.8-2.3,5.8c-0.8,0.3-1.6,0.4-2.5,0.3c-0.1,0.1-0.3,0.1-0.4,0.2
	c-0.6,0.3-1.1,0.6-1.6,1c-0.3,0.2-0.5,0.4-0.7,0.7c0,0,0.1,0,0.1,0.1c0.1,0.2,0.2,0.4,0.2,0.7c-0.1,0.9,0,1.9,0.1,2.8
	c0,0.4-0.1,0.8-0.2,1.3c0,0.2,0,0.3-0.1,0.5c-0.1,0.2-0.1,0.3-0.2,0.5c0,0,0.1,0.1,0.1,0.1c0.2,0.2,0.3,0.6,0.3,0.9
	c0,0.1-0.1,0.3-0.1,0.4c0,0.2,0.1,0.3,0.1,0.5c0,0,0,0,0,0c0.6-0.1,1.3-0.2,1.9-0.3c0.3,0,0.6-0.1,1-0.1c0-0.1,0-0.1,0-0.2
	c0-0.1,0-0.3,0.1-0.4c0.1-0.3,0-0.7-0.3-0.9c0,0-0.1-0.1-0.1-0.1c0.1-0.2,0.1-0.3,0.2-0.5c0.1-0.1,0.2-0.3,0.1-0.5
	c0.1-0.4,0.2-0.8,0.2-1.3c-0.1-0.9-0.2-1.9-0.1-2.8c0-0.2-0.1-0.5-0.2-0.7c0,0-0.1,0-0.1-0.1c0.2-0.3,0.4-0.5,0.7-0.7
	c0.5-0.4,1-0.7,1.6-1c0.1-0.1,0.3-0.1,0.4-0.2c0.2,0,0.4,0.1,0.6,0.1c2.5,0,4.5-2,4.5-4.5c0-0.6-0.1-1.1-0.3-1.7
	c0.4-0.1,0.8-0.4,1-0.7c0.2-0.4,0.4-0.8,0.4-1.2c0.1-0.3,0-0.7-0.2-1c-0.2-0.2-0.4-0.3-0.6-0.4c-0.3-0.2-0.5-0.4-0.7-0.7
	c-0.1-0.2-0.2-0.4-0.3-0.7c-0.4-0.8-1.2-1.3-2.1-1.4c-0.4,0.1-0.8,0.1-1.2,0.2c-0.2,0-0.5,0.1-0.7,0
	C888.4,447.1,888.7,447.5,889,448z"/>
<path class="st5" d="M913.3,497.1c-0.2-0.1-0.4-0.2-0.6-0.2c-1-0.2-2.1-0.4-3.1-0.7c-1-0.3-2-0.8-2.7-1.5c-0.3-0.3-0.6-0.7-1-0.9
	c-0.4-0.3-0.9-0.3-1.3-0.1c0,0-0.1,0.1-0.1,0.1c-0.1-0.1-0.3-0.2-0.4-0.3c-0.8-0.5-1.5-1-2.3-1.5l0,0c0-0.1,0-0.2,0-0.4
	c-0.1-0.4-0.4-0.7-0.8-1c1,0,2-0.1,3-0.2c0.9,0,1.8-0.3,2.5-1c0.1-0.1,0.2-0.3,0.2-0.4c0-0.3-0.3-0.5-0.6-0.6
	c-0.4-0.2-0.8-0.3-1.2-0.4c-0.3,0-0.6-0.1-0.8-0.2c-0.2-0.1-0.5-0.2-0.7-0.3c-0.5-0.3-1-0.5-1.5-0.8c-0.2-0.1-0.4-0.2-0.6-0.4
	c-0.2-0.3-0.4-0.6-0.6-0.9c-0.2-0.2-1.2-0.6-1.3-0.1c-0.1,0.2,0.2,0.4,0.2,0.6c-0.3-0.2-0.7-0.4-1-0.6c0,0,0-0.1,0.1-0.1
	c-1.6-1.3-2.9-3-3.8-4.9c0.1,0,0.3,0,0.4,0c0.2,0,0.5,0,0.7-0.2c0.2-0.2,0.3-0.4,0.2-0.6c0-0.2-0.1-0.5-0.2-0.7
	c-0.2-0.6-0.5-1.2-1-1.7c-0.4-0.4-0.9-0.7-1.4-1l-0.1,0c0-0.1-0.1-0.2-0.1-0.3c-0.3-0.7-0.7-1.3-1.1-1.9c-0.6-1-1-2.1-1.2-3.3
	c-0.1-0.7-0.4-1.4-0.8-1.9c-0.8-0.8-2.1-0.8-3.2-0.7c-0.3,0-0.5,0.1-0.8,0.1c0.4,0.1,0.7,0.3,1,0.6c0.4,0.6,0.7,1.2,0.8,1.9
	c0.3,1.1,0.7,2.2,1.2,3.3c0.4,0.6,0.8,1.2,1.1,1.9c0,0.1,0.1,0.2,0.1,0.3l0.1,0c0.5,0.3,1,0.6,1.4,1c0.4,0.5,0.8,1.1,1,1.7
	c0.1,0.2,0.1,0.4,0.2,0.7c0,0.2-0.1,0.5-0.2,0.6c-0.2,0.1-0.5,0.2-0.7,0.2c-0.1,0-0.3,0-0.4,0c0.8,1.9,2.1,3.6,3.8,4.9
	c0,0,0,0.1-0.1,0.1c0.3,0.2,0.7,0.4,1,0.6c0-0.2-0.2-0.4-0.2-0.6c0.1-0.5,1.1-0.2,1.3,0.1c0.3,0.3,0.4,0.6,0.6,0.9
	c0.2,0.2,0.4,0.3,0.6,0.4c0.5,0.3,1,0.5,1.5,0.8c0.2,0.1,0.5,0.2,0.7,0.3c0.3,0.1,0.6,0.1,0.8,0.2c0.4,0.1,0.8,0.2,1.2,0.4
	c0.3,0.1,0.6,0.3,0.6,0.6c0,0.2-0.1,0.3-0.2,0.4c-0.7,0.6-1.6,1-2.5,1c-1,0.1-2,0.2-3,0.2c0.4,0.2,0.6,0.6,0.8,1c0,0.1,0,0.2,0,0.4
	l0,0c0.8,0.5,1.5,1,2.3,1.5c0.1,0.1,0.3,0.2,0.4,0.3c0,0,0.1-0.1,0.1-0.1c0.4-0.2,0.9-0.2,1.3,0.1c0.4,0.3,0.7,0.6,1,0.9
	c0.8,0.7,1.7,1.2,2.7,1.5c1,0.3,2.1,0.5,3.1,0.7c0.2,0,0.4,0.1,0.6,0.2c0.4,0.3,0.6,0.8,0.4,1.3c-0.1,0.5-0.4,0.9-0.8,1.2
	c-0.3,0.3-0.6,0.6-1,0.8c-0.2,0.1-0.5,0.1-0.8,0.2c0.9,0.1,1.8,0.1,2.7,0c0.4,0,0.7-0.1,1-0.2c0.4-0.2,0.7-0.5,1-0.8
	c0.4-0.3,0.6-0.8,0.8-1.2C913.9,497.9,913.7,497.4,913.3,497.1z"/>
<path class="st5" d="M896.7,494.5c0,0,0.1,0.1,0.1,0.1C896.8,494.6,896.7,494.6,896.7,494.5L896.7,494.5z"/>
<path class="st5" d="M941.3,486.2c0,10.6-4.7,7.7-10.6,7.7s-10.6,2.9-10.6-7.7s10.6-30.7,10.6-30.7S941.3,475.6,941.3,486.2z"/>
<path class="st6" d="M935.6,490.3c0,4.8-2.1,3.5-4.8,3.5s-4.8,1.3-4.8-3.5s4.8-14,4.8-14S935.6,485.5,935.6,490.3z"/>
<path class="st5" d="M944,457.9c0,0,2.2-2.3,2.1-4.5"/>
<path class="st5" d="M921.5,438.9c0,0-0.9-3-2.9-4.1"/>
<path class="st5" d="M899.5,397.9c0,0-0.9-3-2.9-4.1"/>
<path class="st5" d="M925.5,452.9c0,0-0.9-3-2.9-4.1"/>
<path class="st5" d="M922.5,403.9c0,0-0.9-3-2.9-4.1"/>
<path class="st5" d="M916.5,421.9c0,0-0.9-3-2.9-4.1"/>
<path class="st5" d="M942,488.9c0,0,2.2-2.3,2.1-4.5"/>
<path class="st5" d="M946,471.9c0,0,2.2-2.3,2.1-4.5"/>
<rect x="894.1" y="473" transform="matrix(0.9487 -0.3162 0.3162 0.9487 -103.2144 311.0522)" class="st5" width="25.3" height="1"/>
<path class="st5" d="M916.9,470c0.9,3.5-0.6,2.7-2,3c-1.4,0.3-1.1,1.6-3-1.9c-1.3-2.4,0.6-2.7,2-3
	C915.3,467.8,916.3,467.6,916.9,470z"/>
<polygon class="st4" points="574.7,278 574.7,278 574.7,278 552.9,257.9 552.7,257.9 544,250 543.6,249.9 544,249.7 451.1,164.3 
	451.1,164.3 361.4,81.8 315.6,106 311.9,106.8 366.7,189.5 574.1,502.5 819,502.5 "/>
<circle class="st1" cx="334.8" cy="92.5" r="27"/>
</svg>
