<?xml version="1.0" encoding="utf-8"?>
<!-- Generator: Adobe Illustrator 23.1.1, SVG Export Plug-In . SVG Version: 6.00 Build 0)  -->
<svg version="1.1" id="bd2cc7d1-84bf-4eba-bc4c-9f93ef6f675e"
	 xmlns="http://www.w3.org/2000/svg" xmlns:xlink="http://www.w3.org/1999/xlink" x="0px" y="0px" viewBox="0 0 1011 586"
	 style="enable-background:new 0 0 1011 586;" xml:space="preserve">
<style type="text/css">
	.st0{fill:#005AD4;}
	.st1{fill:#11AB7C;}
	.st2{opacity:0.1;enable-background:new    ;}
	.st3{fill:#F2F2F2;}
	.st4{opacity:3.000000e-02;enable-background:new    ;}
	.st5{fill:none;stroke:#11AB7C;stroke-width:4;stroke-miterlimit:10;}
	.st6{fill:#F5B759;}
	.st7{fill:#EF6C4D;}
	.st8{fill:none;stroke:#3F3D56;stroke-width:4;stroke-miterlimit:10;}
	.st9{opacity:0.25;fill:#FFFFFF;enable-background:new    ;}
	.st10{fill:#464353;}
	.st11{fill:#10AB7C;stroke:#209B7C;stroke-miterlimit:10;}
	.st12{fill:#11AB7C;stroke:#209B7C;stroke-miterlimit:10;}
	.st13{fill:none;stroke:#209B7C;stroke-miterlimit:10;}
	.st14{fill:#264992;}
	.st15{fill:#FF6584;}
	.st16{fill:#FFFFFF;}
</style>
<path class="st0" d="M255.2,545.4h43.7L284.4,522l-10.2-0.9l6-6l-36.5-59v-9.6h-4.9L209,375.2l5.1-7.1l-5.1-3.9h-3l-16.7-151.4h2.5
	l3.9-10.9v-21.2h-5.1v-10.3h-6.4v-19.9h-1.3v-19.3h-1.3v19.3h-1.9v19.9h-5.8v10.3h-5.8v21.2l4.5,10.9h2.6l-12.5,151.4h-0.1l-8.4,2.6
	l4.5,7.7l0.3,0.6h-0.3l-25,71.3h-6.5l0.6,9.6l-54,89.3h44.4V535h-2.6c0,0,8.4-56.6,68.8-61.7c61.7-1.3,73.3,60.4,73.3,60.4h-2.6
	L255.2,545.4L255.2,545.4z M285.3,524.6l1.7,6l-7.7-5.1L285.3,524.6z M275.9,526.3l9.4,6l-10.3-0.9L275.9,526.3z M264.7,532.3l6-6.9
	l2.6,6.9H264.7z M254.7,494.3l2.2,5.1l-9.5-5.1H254.7z M251.8,491l0.7-4.4l8.1,5.1L251.8,491z M265.6,514.3l2.6,6l-11.1-6H265.6z
	 M253.9,509.8l5.1-5.9l2.2,5.9H253.9z M262.8,509l0.7-4.4l8.1,5.1L262.8,509z M271.6,521.1l-3.4-6.9h9.4L271.6,521.1z M273,508.3
	l-6.6-4.4l5.1-0.7L273,508.3z M270.8,501l-8.8-0.7l5.1-5.1L270.8,501z M259.8,500.2l-2.9-5.9h8.1L259.8,500.2z M262.1,490.3
	l-6.6-4.4l5.1-0.7L262.1,490.3z M259.9,483l-8.8-0.7l5.1-5.1L259.9,483z M248.9,482.2l-2.9-5.9h8.1L248.9,482.2z M239,472.4l0.7-4.4
	l8.1,5.1L239,472.4z M246,481.5l-9.5-5.1h7.3L246,481.5z M249.3,471.7l-6.6-4.4l5.1-0.7L249.3,471.7z M247.1,464.3l-8.8-0.7l5.1-5.1
	L247.1,464.3z M241.2,457.7l-5.1,5.9l-2.9-5.9H241.2z M233.1,462.8l-9.5-5.1h7.3L233.1,462.8z M160.9,446.5l13.3-59.1h20.6
	l17.6,59.1H160.9z M206.1,463.5l-9.5-5.1h7.3L206.1,463.5z M189.2,462.2l-2.6,2.9l-1.5-2.9H189.2z M185.2,464.8l-4.8-2.6h3.7
	L185.2,464.8z M153.3,428.1l9.6-5.8l-2.6,10.9L153.3,428.1z M158.4,434.6H143l8.4-5.1L158.4,434.6z M182.1,229.5l-2.7,2.7l-2.7-2.7
	H182.1z M176.7,228.3l2.7-2.7l2.7,2.7H176.7z M182.1,236h-5.4l2.7-2.7L182.1,236z M179.9,232.7l2.7-2.7v5.4L179.9,232.7z
	 M182.5,238.5v6.4l-3.2-3.2L182.5,238.5z M179.9,225l2.7-2.7v5.4L179.9,225z M180.6,218l2.1-2.1v4.3L180.6,218z M182.3,220.5H178
	l2.1-2.1L182.3,220.5z M180.2,217.5l-2.1-2.1h4.3L180.2,217.5z M179.8,218l-2.1,2.1v-4.3L179.8,218z M182.1,221.8l-2.7,2.7l-2.7-2.7
	H182.1z M178.8,225l-2.7,2.7v-5.4L178.8,225z M178.8,232.7l-2.7,2.7V230L178.8,232.7z M181.9,237.9l-3.2,3.2l-3.2-3.2H181.9z
	 M181.9,245.6h-6.4l3.2-3.2L181.9,245.6z M182.5,248.2v6.4l-3.2-3.2L182.5,248.2z M181.9,247.5l-3.2,3.2l-3.2-3.2H181.9z
	 M181.9,255.2h-6.4l3.2-3.2L181.9,255.2z M182.4,258.4v7.9l-4-4L182.4,258.4z M181.6,267.1h-7.9l4-4L181.6,267.1z M182.4,269.9v7.9
	l-4-4L182.4,269.9z M181.6,269.1l-4,4l-4-4H181.6z M181.6,278.6h-7.9l4-4L181.6,278.6z M182.2,281.9v9.6l-4.8-4.8L182.2,281.9z
	 M181.3,292.5h-9.6l4.8-4.8L181.3,292.5z M182.2,296.1v9.6l-4.8-4.8L182.2,296.1z M181.3,295.1l-4.8,4.8l-4.8-4.8H181.3z
	 M181.3,306.7h-9.6l4.8-4.8L181.3,306.7z M182.1,310.6V322l-5.7-5.7L182.1,310.6z M180.9,323.1h-11.4l5.7-5.7L180.9,323.1z
	 M181.9,329.2V342l-6.4-6.4L181.9,329.2z M180.6,343.3h-12.9l6.4-6.4L180.6,343.3z M181.8,348.6v13.8l-6.9-6.9L181.8,348.6z
	 M180.4,347.2l-6.9,6.9l-6.9-6.9H180.4z M180.4,363.8h-13.8l6.9-6.9L180.4,363.8z M164.9,404.4H152l7.7-4.5L164.9,404.4z M161,398.6
	l8.4-5.1l-1.9,11.6L161,398.6z M166.2,407.6l-1.9,10.9l-5.1-5.8L166.2,407.6z M162.9,406.3l-6.4,5.1l-4.5-5.1H162.9z M162.3,419.1
	h-13.5l7.1-5.1L162.3,419.1z M166.7,457.7l-2.9,5.9l-5.1-5.9H166.7z M168.9,457.7h7.3l-9.5,5.1L168.9,457.7z M217.3,426.7l-6.7,5.6
	l-3.3-10.7L217.3,426.7z M205.7,417.8L203,407l7.4,4.6L205.7,417.8z M213.8,412.7l7.4,4.6l-13.5,0.9L213.8,412.7z M213,410.2
	l-6.8-4.7l10.9-0.7L213,410.2z M204.1,403.7l4.8-4.8l8,4L204.1,403.7z M201.6,404.5l-2.7-11.4l8.7,4.6L201.6,404.5z M186,363.8
	l6.9-6.9l6.9,6.9H186z M184.6,362.4v-13.8l6.9,6.9L184.6,362.4z M186,347.2h13.8l-6.9,6.9L186,347.2z M185.8,343.3l6.4-6.4l6.4,6.4
	H185.8z M184.5,342v-12.9l6.4,6.4L184.5,342z M184.3,322v-11.4l5.7,5.7L184.3,322z M191.2,317.4l5.7,5.7h-11.4L191.2,317.4z
	 M186.5,232.7l-2.7,2.7V230L186.5,232.7z M184.3,229.5h5.4l-2.7,2.7L184.3,229.5z M183.8,248.2l3.2,3.2l-3.2,3.2V248.2z
	 M184.5,247.5h6.4l-3.2,3.2L184.5,247.5z M184,269.9l4,4l-4,4V269.9z M184.8,269.1h7.9l-4,4L184.8,269.1z M184.2,296.1l4.8,4.8
	l-4.8,4.8V296.1z M185.1,295.1h9.6l-4.8,4.8L185.1,295.1z M189.9,301.8l4.8,4.8h-9.6L189.9,301.8z M190.9,300.9l4.8-4.8v9.6
	L190.9,300.9z M185.1,292.5l4.8-4.8l4.8,4.8H185.1z M184.2,291.6V282l4.8,4.8L184.2,291.6z M188.7,274.7l4,4h-7.9L188.7,274.7z
	 M189.5,273.9l4-4v7.9L189.5,273.9z M184.8,267.1l4-4l4,4H184.8z M184,266.3v-7.9l4,4L184,266.3z M187.7,252l3.2,3.2h-6.4L187.7,252
	z M188.3,251.4l3.2-3.2v6.4L188.3,251.4z M184.5,245.6l3.2-3.2l3.2,3.2H184.5z M183.8,245v-6.4l3.2,3.2L183.8,245z M187,233.3
	l2.7,2.7h-5.4L187,233.3z M187.5,232.7l2.7-2.7v5.4L187.5,232.7z M184.3,228.3l2.7-2.7l2.7,2.7H184.3z M183.7,227.7v-5.4l2.7,2.7
	L183.7,227.7z M186.6,218l2.1-2.1v4.3L186.6,218z M188.3,220.5H184l2.1-2.1L188.3,220.5z M186.2,217.5l-2.1-2.1h4.3L186.2,217.5z
	 M185.8,218l-2.1,2.1v-4.3L185.8,218z M214.2,458.3l-5.1,5.9l-2.9-5.9H214.2z M212.6,433.4l6.7-5.6l8.7,4.6L212.6,433.4z
	 M229.1,430.4l-8.7-5.2l4.9-4.2L229.1,430.4z M218.4,424l-8-4l12.8-0.9L218.4,424z M222.3,415.4l-7.4-4l4.1-5.4L222.3,415.4z
	 M217.5,400.9l-7.4-4l4.2-4.8L217.5,400.9z M213.6,390.8l-4.8,5.5l-8.7-4.6L213.6,390.8z M201.2,362.4l-6.9-6.9l6.9-6.9V362.4z
	 M199.9,342l-6.4-6.4l6.4-6.4V342z M192.2,334.3l-6.4-6.4h12.9L192.2,334.3z M198,322l-5.7-5.7l5.7-5.7V322z M191.2,315.2l-5.7-5.7
	h11.4L191.2,315.2z M195.7,291.6l-4.8-4.8l4.8-4.8V291.6z M189.9,285.8l-4.8-4.8h9.6L189.9,285.8z M193.5,266.3l-4-4l4-4V266.3z
	 M188.7,261.5l-4-4h7.9L188.7,261.5z M191.5,245l-3.2-3.2l3.2-3.2V245z M187.7,241.1l-3.2-3.2h6.4L187.7,241.1z M190.3,227.7
	l-2.7-2.7l2.7-2.7V227.7z M187,224.5l-2.7-2.7h5.4L187,224.5z M174.8,238.5l3.2,3.2l-3.2,3.2V238.5z M174.8,248.2l3.2,3.2l-3.2,3.2
	V248.2z M181.6,257.6l-4,4l-4-4H181.6z M172.9,258.4l4,4l-4,4V258.4z M172.9,269.9l4,4l-4,4V269.9z M181.3,280.9l-4.8,4.8l-4.8-4.8
	H181.3z M170.7,281.9l4.8,4.8l-4.8,4.8V281.9z M170.7,296.1l4.8,4.8l-4.8,4.8V296.1z M180.9,309.5l-5.7,5.7l-5.7-5.7H180.9z
	 M168.4,310.6l5.7,5.7l-5.7,5.7V310.6z M180.6,327.9l-6.4,6.4l-6.4-6.4H180.6z M166.5,329.2l6.4,6.4l-6.4,6.4V329.2z M165.2,348.6
	l6.9,6.9l-6.9,6.9V348.6z M168.1,392.1l-8.4,5.1l-5.1-5.1H168.1z M153.9,393.4l4.5,4.5l-7.1,4.5L153.9,393.4z M150.1,407.6l4.5,5.1
	l-7.1,4.5L150.1,407.6z M159.7,421.1l-7.7,4.5l-5.1-4.5H159.7z M144.9,423l5.1,3.9l-8.4,5.8L144.9,423z M148.6,457.7l-9.5,5.1
	l2.2-5.1H148.6z M139.1,457.7l-2.9,5.9l-5.1-5.9H139.1z M128.8,458.4l5.1,5.1l-8.8,0.7L128.8,458.4z M137.1,476.3l-9.5,5.1l2.2-5.1
	H137.1z M124.4,473.1l8.1-5.1l0.7,4.4L124.4,473.1z M124.4,466.5l5.1,0.7l-6.6,4.4L124.4,466.5z M127.5,476.3l-2.9,5.9l-5.1-5.9
	H127.5z M117.2,477.1l5.1,5.1l-8.8,0.7L117.2,477.1z M116.5,514.3l-11.1,6l2.6-6H116.5z M101.9,509.8l8.1-5.1l0.7,4.4L101.9,509.8z
	 M112.2,509.8l2.2-5.9l5.1,5.9H112.2z M126.1,494.3l-9.5,5.1l2.2-5.1H126.1z M112.8,491.8l8.1-5.1l0.7,4.4L112.8,491.8z
	 M112.8,485.2l5.1,0.7l-6.6,4.4L112.8,485.2z M116.6,494.3l-2.9,5.9l-5.1-5.9H116.6z M106.3,495.1l5.1,5.1l-8.8,0.7L106.3,495.1z
	 M101.9,503.2l5.1,0.7l-6.6,4.4L101.9,503.2z M105.3,514.3l-3.4,6.9l-6-6.9H105.3z M88.2,524.6l6,0.9l-7.7,5.1L88.2,524.6z
	 M88.2,532.3l9.4-6l0.9,5.1L88.2,532.3z M89,522l4.3-6.9l6,6L89,522z M100.2,532.3l2.6-6.9l6,6.9H100.2z M112.2,531.4l-6-6.9
	l10.3-0.9L112.2,531.4z M117.3,521.1h-9.4l12-6L117.3,521.1z M122.5,509l-5.1-5.9l8.8-0.7L122.5,509z M126.9,500.2h-8.1l10.3-5.1
	L126.9,500.2z M123.1,491.8l2.2-5.9l5.1,5.9H123.1z M133.4,491l-5.1-5.9l8.8-0.7L133.4,491z M137.8,482.2h-8.1l10.3-5.1L137.8,482.2
	z M134.7,473.1l2.2-5.9l5.1,5.9H134.7z M144.9,472.4l-5.1-5.9l8.8-0.7L144.9,472.4z M141.3,463.6l10.3-5.1l-2.2,5.1H141.3z
	 M152,466.5l5.1,0.7l-6.6,4.4L152,466.5z M152,473.1l8.1-5.1l0.7,4.4L152,473.1z M152.8,464.3l3.7-5.9l5.1,5.1L152.8,464.3z
	 M162.3,473.1l2.2-5.9l5.1,5.9H162.3z M172.6,472.4l-5.1-5.9l8.8-0.7L172.6,472.4z M168.9,463.6l10.3-5.1l-2.2,5.1H168.9z
	 M178.9,462.6l5.1,2.6h-4L178.9,462.6z M180.4,466.2l4.4,0.4l-2.6,2.9L180.4,466.2z M183.7,469.9l2.6-2.9l1.1,2.9H183.7z
	 M190.3,462.6l1.8,2.9l-4.4-0.4L190.3,462.6z M188.1,469.5l0.4-2.2l4,2.6L188.1,469.5z M189.9,467l2.6-0.4l0.7,2.6L189.9,467z
	 M193.6,459.1l10.3,5.1h-8.1L193.6,459.1z M196.6,466.4l8.8,0.7l-5.1,5.9L196.6,466.4z M203.2,473.8l5.1-5.9l2.2,5.9H203.2z
	 M216.4,459.1l3.7,5.9l-8.8-0.7L216.4,459.1z M212,473l0.7-4.4l8.1,5.1L212,473z M215.7,467.9l5.1-0.7l1.5,5.1L215.7,467.9z
	 M220.6,458.4l10.3,5.1h-8.1L220.6,458.4z M223.5,465.8l8.8,0.7l-5.1,5.9L223.5,465.8z M235.3,467.3l2.2,5.9h-7.3L235.3,467.3z
	 M235.7,482.2l-2.2-5.1l10.3,5.1H235.7z M236.4,484.4l8.8,0.7l-5.1,5.9L236.4,484.4z M248.2,485.9l2.2,5.9H243L248.2,485.9z
	 M244.4,495.1l10.3,5.1h-8.1L244.4,495.1z M247.3,502.4l8.8,0.7L251,509L247.3,502.4z M253.6,515.1l12,6h-9.4L253.6,515.1z
	 M257,523.7l10.3,0.9l-6,6.9L257,523.7z"/>
<title>close_tab</title>
<path class="st1" d="M1005.2,564c0,5.3-45.9,10.1-121.8,13.8c-13.8,0.6-28.6,1.3-44.3,1.9c-13.6,0.5-27.8,1-42.7,1.5
	c-14.4,0.4-29.3,0.9-44.8,1.2c-48.9,1.2-103,2-160.6,2.5c-13.9,0.1-28.1,0.2-42.5,0.2c-14.9,0.1-30,0.1-45.3,0.1
	c-277.2,0-501.8-9.5-501.8-21.1s224.7-21.2,501.8-21.2c119.3,0,228.9,1.7,315,4.6l9.4,0.3h0.1C936.3,551.7,1005.2,557.5,1005.2,564z
	"/>
<path class="st2" d="M1005.2,564c0,5.3-45.9,10.1-121.8,13.8c-13.8,0.6-28.6,1.3-44.3,1.9c-13.6,0.5-27.8,1-42.7,1.5
	c-14.4,0.4-29.3,0.9-44.8,1.2c-48.9,1.2-103,2-160.6,2.5c-13.9,0.1-28.1,0.2-42.5,0.2c-14.9,0.1-30,0.1-45.3,0.1
	c-277.2,0-501.8-9.5-501.8-21.1s224.7-21.2,501.8-21.2c119.3,0,228.9,1.7,315,4.6l9.4,0.3h0.1C936.3,551.7,1005.2,557.5,1005.2,564z
	"/>
<path class="st1" d="M1005.2,556c0,5.3-45.9,10.1-121.8,13.8c-13.8,0.6-28.6,1.3-44.3,1.9c-13.6,0.5-27.8,1-42.7,1.5
	c-14.4,0.4-29.3,0.9-44.8,1.2c-48.9,1.2-103,2-160.6,2.5c-13.9,0.1-28.1,0.2-42.5,0.2c-14.9,0-30,0.1-45.3,0.1
	c-277.2,0-501.8-9.5-501.8-21.1S226.2,535,503.3,535c119.3,0,228.9,1.7,315,4.6l9.4,0.3h0.1C936.3,543.7,1005.2,549.5,1005.2,556z"
	/>
<path class="st1" d="M1005.2,556c0,5.3-45.9,10.1-121.8,13.8c-13.8,0.6-28.6,1.3-44.3,1.9c-13.6,0.5-27.8,1-42.7,1.5
	c-14.4,0.4-29.3,0.9-44.8,1.2c-48.9,1.2-103,2-160.6,2.5c-13.9,0.1-28.1,0.2-42.5,0.2c-14.9,0.1-30,0.1-45.3,0.1
	C226,577.2,1.4,567.7,1.4,556c0-10.1,167.2-18.5,391.1-20.7c12.7-0.1,25.6-0.2,38.7-0.3c23.5-0.1,47.5-0.2,72-0.2
	c24.5,0,48.5,0.1,72,0.2c13,0.1,26,0.2,38.7,0.3c76.1,0.8,145.6,2.2,204.2,4.2l9.4,0.3h0.1C936.3,543.7,1005.2,549.5,1005.2,556z"/>
<ellipse class="st2" cx="843.9" cy="554.2" rx="117.1" ry="12.5"/>
<path class="st3" d="M888,169.9L870.5,181l10.6-19.4c-3-2.4-6.7-3.8-10.6-3.8h-0.3c-1.2,0-2.4-0.1-3.7-0.3l-5.9,3.8l2.6-4.6
	c-4.2-1.5-7.9-4.2-10.3-7.9l-10.6,6.8l6.7-12.3c-6.3-7.5-14.5-12.1-23.7-12.1c-11,0-20.8,6.6-27.2,16.9c-3.8,6.3-10.7,10-18,9.8
	h-0.6c-12.2,0-22,13.9-22,31s9.9,31,22,31c2.7,0,5.3-0.6,7.7-1.9c8-4.2,18.3-4.2,26.6-0.5c7.2,3.2,15.4,3.2,22.6,0.1
	c8.3-3.7,18.5-3.6,26.4,0.5c2.4,1.3,5,1.9,7.5,1.9c12.2,0,22-13.9,22-31C892.6,182.3,891.1,175.7,888,169.9z"/>
<path class="st4" d="M855,215.2c-6.4-1.2-12.9-0.5-18.9,2c-7.2,3.2-15.4,3.2-22.6,0c-8.3-3.7-18.8-3.7-26.7,0.5
	c-2.4,1.3-5,1.9-7.7,1.9c-10.9,0-19.8-11-21.7-25.5c2.2-1.6,4-3.6,5.4-5.8c6.4-10.2,16.2-16.9,27.2-16.9s20.7,6.6,27.1,16.7
	c3.9,6.3,10.7,10,18,9.9h0.3C843.9,198.2,851.3,205.1,855,215.2z"/>
<path class="st3" d="M135.1,159.4l-8.7,5.6l5.3-9.7c-1.5-1.2-3.3-1.9-5.3-1.9h-0.1c-0.6,0-1.2,0-1.8-0.1l-2.9,1.9l1.3-2.4
	c-2-0.8-3.9-2.2-5.2-4l-5.3,3.3l3.3-6.1c-2.8-3.7-7.2-5.9-11.9-6c-5.5,0-10.3,3.3-13.6,8.4c-1.9,3.1-5.3,5-8.9,4.8H81
	c-6,0-11,6.9-11,15.5c0,8.5,5,15.4,11,15.4c1.3,0,2.7-0.3,3.9-1c4.2-2,9.1-2.2,13.3-0.2c3.6,1.6,7.8,1.6,11.3,0
	c4.2-1.8,9.1-1.7,13.1,0.2c1.2,0.6,2.5,1,3.8,1c6,0,11-6.9,11-15.4C137.5,165.5,136.6,162.3,135.1,159.4z"/>
<path class="st4" d="M92.9,42.1c-3.1-0.6-6.5-0.2-9.4,1.1c-3.6,1.6-7.8,1.6-11.3,0c-4.3-1.8-9.2-1.8-13.4,0.2c-1.2,0.6-2.5,1-3.9,1
	c-5.4,0-9.9-5.5-10.8-12.7c1.1-0.8,1.9-1.7,2.7-2.9c3.1-5.2,8.1-8.4,13.6-8.4s10.3,3.2,13.5,8.3c1.9,3.1,5.3,5,8.9,5H83
	C87.3,33.6,91,37.1,92.9,42.1z"/>
<path class="st3" d="M248.4,193.2l14,8.9l-8.5-15.5c2.4-1.9,5.4-3,8.5-3h0.2c1,0,1.9-0.1,2.9-0.2l4.7,3l-2-3.8
	c3.3-1.2,6.3-3.4,8.3-6.4l8.5,5.4l-5.3-9.8c5-6,11.6-9.7,19.1-9.7c8.8,0,16.7,5.3,21.8,13.5c3,5.1,8.5,8,14.3,7.9h0.4
	c9.7,0,17.7,11.1,17.7,24.9c0,13.8-7.9,24.9-17.7,24.9c-2.2,0-4.3-0.5-6.1-1.5c-6.7-3.2-14.5-3.4-21.3-0.4c-5.8,2.6-12.4,2.7-18.2,0
	c-6.8-3-14.5-2.8-21.2,0.4c-1.8,1-4,1.5-6,1.5c-9.8,0-17.7-11.1-17.7-24.9C244.6,203.1,245.8,197.9,248.4,193.2z"/>
<path class="st4" d="M274.7,229.6c5.1-1,10.3-0.4,15.1,1.6c5.8,2.6,12.4,2.6,18.2,0c6.8-3,14.7-2.9,21.3,0.4c1.9,1,4,1.5,6.1,1.5
	c8.6,0,15.8-8.8,17.4-20.4c-1.7-1.3-3.2-2.9-4.4-4.7c-5.1-8.2-12.9-13.5-21.8-13.5c-8.8,0-16.6,5.3-21.7,13.4c-3.1,5-8.5,8-14.3,8
	h-0.2C283.6,215.9,277.6,221.4,274.7,229.6z"/>
<path class="st5" d="M850.8,546.9c1-1.9-0.1-4.2-1.5-5.9s-2.9-3.4-2.9-5.6c0-3.1,3.3-4.9,5.9-6.5c1.9-1.2,3.7-2.6,5.3-4.3
	c0.6-0.7,1.2-1.4,1.6-2.2c0.5-1.2,0.5-2.6,0.5-3.9c-0.1-4.4-0.3-8.8-0.7-13.2"/>
<path class="st6" d="M864,505.1c-0.1-1.6-1-3.1-2.4-3.9l-1.1,2.1v-2.6c-2.5-0.7-5.2,0.7-5.9,3.3c-0.7,2.6,0.7,5.2,3.2,6
	c2.5,0.7,5.2-0.7,5.9-3.3C863.9,506.2,864,505.7,864,505.1z"/>
<path class="st6" d="M855.5,537.6c-1.2,2.3-4.1,3.3-6.4,2.1s-3.3-4.1-2.1-6.5c1.2-2.3,4.1-3.3,6.4-2.1c1.1,0.5,1.9,1.5,2.3,2.6
	l-3,2.4l3.3-0.8C856,536.2,855.8,537,855.5,537.6z"/>
<path class="st7" d="M853.1,528.3c-2.6,0.1-4.8-1.9-5-4.6c-0.1-2.2,1.3-4.2,3.5-4.8v2l1.1-2.2l0,0c2.6-0.2,4.9,1.8,5.1,4.5
	c0.2,2.6-1.8,4.9-4.4,5.1C853.3,528.3,853.2,528.3,853.1,528.3L853.1,528.3z"/>
<path class="st7" d="M864.7,520.6c-2.6,0.1-4.8-1.9-5-4.6c-0.1-2.6,1.9-4.9,4.5-5c0.9,0,1.8,0.2,2.6,0.6l-0.8,2.3l1.7-1.7
	c0.9,0.8,1.5,2,1.5,3.3c0,0.4,0,0.9-0.1,1.3C868.6,519,866.8,520.5,864.7,520.6z"/>
<path class="st2" d="M863.3,506.4c-1.1,0.1-2.2,0.5-3.3,0.5c-1.1,0.1-2.3-0.2-3-1.1c-0.4-0.5-0.6-1.1-0.9-1.6
	c-0.3-0.5-0.7-0.9-1.2-1.1c-1.2,2.4-0.3,5.2,2.1,6.5c2.3,1.2,5.2,0.3,6.4-2.1c0.2-0.4,0.3-0.8,0.4-1.2
	C863.7,506.4,863.5,506.4,863.3,506.4z"/>
<path class="st2" d="M864.7,520.6c-2.6,0.1-4.8-1.9-5-4.6c0-0.8,0.1-1.5,0.4-2.2c0.4,0.3,0.7,0.6,1,1c0.3,0.5,0.5,1.1,0.9,1.6
	c0.7,0.9,2,1.2,3.2,1.1c1.1,0,2.2-0.4,3.4-0.5c0.2,0,0.3,0,0.5,0C868.6,519,866.8,520.5,864.7,520.6z"/>
<path class="st2" d="M853.1,528.3c-2.6,0.1-4.9-1.9-5-4.5c0-0.7,0.1-1.5,0.4-2.2c0.4,0.3,0.7,0.6,1,1c0.4,0.5,0.6,1.1,1,1.6
	c0.8,0.9,2.2,1.2,3.4,1.2s2.3-0.3,3.5-0.4C856.9,526.9,855.1,528.2,853.1,528.3z"/>
<path class="st8" d="M522.8,506.8c-1.6-3,0.2-6.7,2.3-9.3c2.1-2.7,4.6-5.5,4.6-8.8c-0.1-4.9-5.2-7.7-9.3-10.4
	c-3.1-1.9-5.9-4.2-8.4-6.8c-1.1-1-1.9-2.2-2.6-3.5c-0.9-1.9-0.8-4.1-0.8-6.1c0.2-6.9,0.5-13.9,1-20.9"/>
<path class="st7" d="M501.8,440.6c0.1-2.6,1.5-4.9,3.8-6.2l1.7,3.4l-0.1-4.1c4-1.2,8.2,1.1,9.4,5.1s-1.1,8.2-5.1,9.4
	c-4,1.2-8.2-1.1-9.4-5.1C501.9,442.3,501.8,441.4,501.8,440.6z"/>
<path class="st1" d="M515.3,492.1c1.9,3.8,6.5,5.2,10.2,3.3c2.4-1.3,4-3.7,4.1-6.4c0.1-1.1-0.1-2.1-0.5-3.1
	c-1.5-3.9-5.9-5.9-9.7-4.4c-2,0.8-3.6,2.4-4.4,4.5l4.7,3.9l-5.2-1.2C514.5,489.8,514.7,491,515.3,492.1z"/>
<path class="st6" d="M519.1,477.3c4.2,0.2,7.7-3.1,7.9-7.2c0.1-1.2-0.2-2.4-0.6-3.5c-0.9-2-2.7-3.6-4.8-4.2l0.1,3.1l-1.7-3.4l0,0
	c-4.2-0.2-7.7,3.1-7.9,7.2c-0.1,0.9,0.1,1.8,0.3,2.6C513.1,475,515.9,477.2,519.1,477.3z"/>
<path class="st1" d="M500.7,465c4.2,0.2,7.7-3.1,7.9-7.2c0.2-4.2-3.1-7.8-7.3-8c-1.4-0.1-2.8,0.3-4,1l1.3,3.7l-2.7-2.7
	c-3.1,2.8-3.3,7.7-0.5,10.8C496.8,464.1,498.7,464.9,500.7,465L500.7,465z"/>
<path class="st2" d="M502.8,442.6c1.8,0.2,3.4,0.7,5.2,0.9c1.8,0.1,3.7-0.3,4.8-1.7c0.6-0.7,0.9-1.6,1.4-2.4
	c0.5-0.7,1.1-1.4,1.9-1.8c1.9,3.8,0.3,8.4-3.4,10.2c-1.1,0.6-2.4,0.9-3.7,0.8c-3.4-0.2-6.3-2.6-7.1-6
	C502.3,442.6,502.6,442.6,502.8,442.6z"/>
<path class="st2" d="M500.7,465c4.2,0.2,7.7-3.1,7.9-7.2c0.1-1.3-0.2-2.5-0.7-3.6c-0.6,0.4-1.1,0.9-1.5,1.5
	c-0.6,0.8-0.9,1.8-1.5,2.5c-1.2,1.4-3.2,1.8-5,1.8c-1.8-0.1-3.6-0.6-5.4-0.8c-0.2,0-0.5-0.1-0.7-0.1
	C494.5,462.5,497.3,464.9,500.7,465z"/>
<path class="st2" d="M519.1,477.3c4.2,0.2,7.7-3.1,7.9-7.2c0.1-1.2-0.2-2.4-0.6-3.5c-0.6,0.4-1.1,0.9-1.6,1.5
	c-0.6,0.9-1,1.8-1.6,2.6c-1.3,1.4-3.4,1.9-5.3,1.9c-1.9-0.1-3.7-0.5-5.5-0.6C513.1,475,515.9,477.2,519.1,477.3z"/>
<path class="st2" d="M515.3,492.1c1.9,3.8,6.5,5.2,10.2,3.3c2.4-1.3,4-3.7,4.1-6.4c0.1-1.1-0.1-2.1-0.5-3.1
	c-0.6,0.4-1.2,0.9-1.6,1.5c-0.7,0.9-1.2,1.9-2,2.7c-1.5,1.5-4,2.2-6.3,2.2C517.9,492.3,516.6,492.2,515.3,492.1z"/>
<path class="st1" d="M534.2,503.3c0,0-6-0.2-7.7-1.5c-1.8-1.3-9.2-2.8-9.6-0.7c-0.5,2-8.9,10.3-2.2,10.4c6.7,0.1,15.6-1.1,17.4-2.2
	C533.8,508.2,534.2,503.3,534.2,503.3z"/>
<ellipse class="st9" cx="163.7" cy="533.3" rx="1" ry="1"/>
<ellipse class="st9" cx="173" cy="537.9" rx="1" ry="1"/>
<ellipse class="st9" cx="177.8" cy="540" rx="1" ry="1"/>
<ellipse class="st9" cx="187.8" cy="543.9" rx="1" ry="1"/>
<ellipse class="st9" cx="182.7" cy="542.2" rx="1" ry="1"/>
<ellipse class="st9" cx="74" cy="503.5" rx="1" ry="1"/>
<ellipse class="st9" cx="73.5" cy="511.5" rx="1" ry="1"/>
<path class="st10" d="M263.1,182.5L263.1,182.5c0.2,0.1,0.2,0.2,0.1,0.3l-2,3c0,0.1-0.1,0.1-0.2,0l-0.1-0.1c-0.1,0-0.1-0.1,0-0.2
	l2-3C263,182.5,263.1,182.5,263.1,182.5z"/>
<g transform="translate(-63.054 -157.8845)">
	<path class="st11" d="M581.2,527.8c-37.5,0-64.5,24.1-64.5,80.2c0,63.7,26.9,80.5,64.5,80.5s66.1-18.5,66.1-80.5
		C647.2,541.7,618.7,527.8,581.2,527.8L581.2,527.8z M581.4,667.4c-26,0-39.6-15.2-39.6-59.3c0-38.9,14.1-59.4,40.1-59.4
		s40.1,13.5,40.1,59.4C622.1,651.1,607.4,667.4,581.4,667.4z"/>
	<path class="st11" d="M494.3,644.2h-15.5v-45.7c0-5.1-4.1-9.1-9.1-9.1H466c-5.1,0-9.1,4.1-9.1,9.1l0,0v45.7h-43.8
		c-2.9,0-5.2-2.3-5.2-5.2c0-0.9,0.2-1.7,0.6-2.4l46.3-87.6c2.4-4.5,0.7-10-3.8-12.4c-0.1-0.1-0.2-0.1-0.4-0.2l-2.7-1.3
		c-4.4-2.1-9.7-0.3-12,4l-56.5,105.7c-1,1.8-1.5,3.8-1.5,5.8c0,6.9,5.6,12.4,12.4,12.4l0,0h66.5v28.9c0,6.1,4.9,11,11,11l0,0l0,0
		c6.1,0,11-4.9,11-11l0,0V663h15.5c5.2,0,9.4-4.2,9.4-9.4C503.6,648.4,499.4,644.2,494.3,644.2L494.3,644.2z"/>
	<path class="st12" d="M781.5,644.2H766v-45.7c0-5.1-4.1-9.1-9.1-9.1l0,0h-3.6c-5.1,0-9.1,4.1-9.1,9.1l0,0v45.7h-43.8
		c-2.9,0-5.2-2.3-5.2-5.2c0-0.9,0.2-1.7,0.6-2.4l46.3-87.6c2.4-4.5,0.7-10-3.8-12.4c-0.1-0.1-0.2-0.1-0.4-0.2l-2.7-1.3
		c-4.4-2.1-9.7-0.3-12,4l-56.5,105.7c-1,1.8-1.5,3.8-1.5,5.8c0,6.9,5.6,12.4,12.4,12.4l0,0h66.5v28.9c0,6.1,4.9,11,11,11l0,0
		c6.1,0,11-4.9,11-11l0,0V663h15.5c5.2,0,9.4-4.2,9.4-9.4l0,0C790.9,648.4,786.7,644.2,781.5,644.2z"/>
	<path class="st13" d="M498.5,638.8H483v-45.7c0-5.1-4.1-9.1-9.1-9.1l0,0h-3.6c-5.1,0-9.1,4.1-9.1,9.1l0,0v45.7h-43.8
		c-2.9,0-5.2-2.3-5.2-5.2c0-0.9,0.2-1.7,0.6-2.4l46.3-87.6c2.4-4.5,0.7-10-3.8-12.4c-0.1-0.1-0.2-0.1-0.4-0.2l-2.7-1.3
		c-4.4-2.1-9.7-0.3-12,4l-56.5,105.7c-1,1.8-1.5,3.8-1.5,5.8c0,6.9,5.6,12.4,12.4,12.4h66.5v28.9c0,6.1,4.9,11,11,11l0,0l0,0
		c6.1,0,11-4.9,11-11l0,0v-28.9h15.5c5.2,0,9.4-4.2,9.4-9.4C507.9,643,503.7,638.8,498.5,638.8z"/>
	<path class="st13" d="M789.5,638.8H774v-45.7c0-5.1-4.1-9.1-9.1-9.1l0,0h-3.6c-5.1,0-9.1,4.1-9.1,9.1l0,0v45.7h-43.8
		c-2.9,0-5.2-2.3-5.2-5.2c0-0.9,0.2-1.7,0.6-2.4l46.3-87.6c2.4-4.5,0.7-10-3.8-12.4c-0.1-0.1-0.2-0.1-0.4-0.2l-2.7-1.3
		c-4.4-2.1-9.7-0.3-12,4l-56.5,105.7c-1,1.8-1.5,3.8-1.5,5.8c0,6.9,5.6,12.4,12.4,12.4l0,0h66.5v28.9c0,6.1,4.9,11,11,11l0,0
		c6.1,0,11-4.9,11-11l0,0v-28.9h15.5c5.2,0,9.4-4.2,9.4-9.4l0,0C798.9,643,794.7,638.8,789.5,638.8z"/>
	<path class="st13" d="M589.7,523c-37.5,0-64.5,24.1-64.5,80.2c0,63.7,26.9,80.5,64.5,80.5s66.1-18.5,66.1-80.5
		C655.8,536.9,627.3,523,589.7,523L589.7,523z M590,662.6c-26,0-39.6-15.2-39.6-59.3c0-38.9,14.1-59.4,40.1-59.4
		s40.1,13.5,40.1,59.4C630.7,646.3,616,662.6,590,662.6L590,662.6z"/>
</g>
<path class="st1" d="M345.4,549.5c-7.6-1.3-14.9-2.4-21.9-3.3l2.8-5.4c-0.9-0.3-5,2.8-5,2.8l3.6-15.6c-4.7,0.6-7.1,16.5-7.1,16.5
	l-5.3-5.4l2.5,6.1c-18.5-2.2-37-3.4-55.6-3.5l2.4-4.6c-0.9-0.3-5,2.8-5,2.8l3.6-15.6c-4.7,0.6-7.1,16.5-7.1,16.5l-5.3-5.4l2.7,6.4
	c-10.7,0.2-21.4,0.9-32,2.2c2.4-7.2,10.6-14,10.6-14c-6.2,1.9-9.5,5-11.2,7.9c-0.2-14.8,2.3-29.5,7.3-43.4c0,0-12.9,28-11.2,46.8
	l0.2,3.3c-10.9,1.6-16.4,3.2-16.4,3.2L345.4,549.5z"/>
<path class="st1" d="M175.1,552.8c-7.6-1.3-14.9-2.4-21.9-3.3l2.8-5.4c-0.9-0.3-5,2.8-5,2.8l3.6-15.6c-4.7,0.6-7.1,16.5-7.1,16.5
	l-5.3-5.4l2.5,6.1c-18.5-2.2-37-3.4-55.6-3.5l2.4-4.6c-0.9-0.3-5,2.8-5,2.8l3.6-15.6C85.4,528.1,83,544,83,544l-5.3-5.4l2.7,6.4
	c-10.7,0.2-21.4,0.9-32,2.2c2.4-7.2,10.6-14,10.6-14c-6.2,1.9-9.5,5-11.2,7.9c-0.2-14.8,2.3-29.5,7.3-43.4c0,0-12.9,28-11.2,46.8
	l0.2,3.3c-10.9,1.6-16.4,3.2-16.4,3.2L175.1,552.8z"/>
<ellipse class="st2" cx="191.9" cy="550.7" rx="150.1" ry="8.8"/>
<path class="st1" d="M138,494c0.2,35.2-20.6,47.7-46.4,47.8c-0.6,0-1.2,0-1.8,0c-1.2,0-2.4-0.1-3.6-0.1c-23.3-1.5-41.5-14.3-41.7-47
	c-0.2-33.9,42.8-77,46-80.1l0,0c0.1-0.1,0.2-0.2,0.2-0.2S137.8,458.8,138,494z"/>
<path class="st14" d="M89.9,536.5l16.9-24l-17,26.6v2.7c-1.2,0-2.4-0.1-3.6-0.1l1.6-35.2v-0.3v-0.1l0.2-3.3l-17.4-26.5l17.4,24v0.7
	l1.2-26.6L74.4,447l15.1,22.7l1.1-55.2v-0.2v0.2l0.1,43.5l14.5-17.4l-14.6,21.1l-0.2,23.8l13.5-23L90.4,489l-0.1,13.3l19.6-32
	L90.1,507L89.9,536.5z"/>
<path class="st1" d="M337.1,532c-6.9,4.1-9.7,12.3-9.7,12.3s8.5,1.6,15.4-2.5s9.7-12.3,9.7-12.3S344,527.9,337.1,532z"/>
<path class="st1" d="M339.5,534.5c-3.9,7-12,10-12,10s-1.8-8.5,2-15.5c3.9-7,12-10,12-10S343.4,527.5,339.5,534.5z"/>
<polygon class="st3" points="864,468.5 863.3,468.5 863.3,467.8 863.2,467.8 863.2,468.5 862.5,468.5 862.5,468.6 863.2,468.6 
	863.2,469.3 863.3,469.3 863.3,468.6 864,468.6 "/>
<polygon class="st3" points="823.2,509.6 822.5,509.6 822.5,508.9 822.4,508.9 822.4,509.6 821.7,509.6 821.7,509.8 822.4,509.8 
	822.4,510.5 822.5,510.5 822.5,509.8 823.2,509.8 "/>
<polygon class="st3" points="868.1,522 867.4,522 867.4,521.3 867.3,521.3 867.3,522 866.6,522 866.6,522.1 867.3,522.1 
	867.3,522.8 867.4,522.8 867.4,522.1 868.1,522.1 "/>
<circle class="st15" cx="893.2" cy="489.5" r="1.5"/>
<circle class="st3" cx="497.7" cy="87.1" r="2.6"/>
<path class="st3" d="M776.5,507.4l-0.4-0.1c10.8-47.6,58.2-77.5,105.8-66.8c22.9,5.2,42.8,19.3,55.3,39.2
	c5.3,8.4,9.1,17.6,11.3,27.3l-0.4,0.1c-9.2-40.3-44.5-68.4-85.8-68.4C821.6,438.8,785.5,467.6,776.5,507.4z"/>
<rect x="889.6" y="404" class="st3" width="3.9" height="156.1"/>
<path class="st1" d="M930,423.9c0.2,54.6-38.1,99-38.1,99s-38.8-44-39.1-98.6c-0.2-54.6,38.2-99,38.2-99S929.8,369.3,930,423.9z"/>
<rect x="823.8" y="473.2" class="st3" width="2.2" height="86.8"/>
<path class="st1" d="M846.3,484.2c0.1,30.3-21.2,55.1-21.2,55.1s-21.6-24.5-21.7-54.9c-0.1-30.3,21.2-55.1,21.2-55.1
	S846.2,453.9,846.3,484.2z"/>
<path class="st2" d="M846.3,484.2c0.1,30.3-21.2,55.1-21.2,55.1s-21.6-24.5-21.7-54.9c-0.1-30.3,21.2-55.1,21.2-55.1
	S846.2,453.9,846.3,484.2z"/>
<rect x="794.4" y="462.8" class="st3" width="2.2" height="86.8"/>
<path class="st1" d="M816.9,473.9c0.1,30.3-21.2,55.1-21.2,55.1s-21.6-24.5-21.7-54.9c-0.1-30.3,21.2-55.1,21.2-55.1
	S816.7,443.6,816.9,473.9z"/>
<polygon class="st3" points="827,380.6 826.3,380.6 826.3,379.9 826.2,379.9 826.2,380.6 825.5,380.6 825.5,380.7 826.2,380.7 
	826.2,381.4 826.3,381.4 826.3,380.7 827,380.7 "/>
<polygon class="st3" points="521.5,91.8 520.8,91.8 520.8,91.1 520.7,91.1 520.7,91.8 520,91.8 520,91.9 520.7,91.9 520.7,92.6 
	520.8,92.6 520.8,91.9 521.5,91.9 "/>
<polygon class="st3" points="864,434.1 863.3,434.1 863.3,433.4 863.2,433.4 863.2,434.1 862.5,434.1 862.5,434.2 863.2,434.2 
	863.2,434.9 863.3,434.9 863.3,434.2 864,434.2 "/>
<circle class="st15" cx="836.9" cy="400.8" r="1.5"/>
<ellipse transform="matrix(0.866 -0.5 0.5 0.866 -65.9515 315.6722)" class="st16" cx="556.1" cy="280.9" rx="1.8" ry="13.1"/>
<ellipse transform="matrix(0.5 -0.866 0.866 0.5 143.5595 1037.0597)" class="st16" cx="969.9" cy="394.2" rx="13.1" ry="1.8"/>
<circle class="st7" cx="923.4" cy="552.6" r="9.5"/>
<ellipse class="st7" cx="923.4" cy="539.7" rx="6.8" ry="7.2"/>
<ellipse class="st7" cx="923.4" cy="528.5" rx="4.9" ry="5.1"/>
<path class="st1" d="M803.5,540.2c-12.9-1.6-25.4-2.9-37.3-4l4.8-6.5c-1.5-0.4-8.5,3.4-8.5,3.4l6.1-18.7c-8,0.7-12.1,19.8-12.1,19.8
	l-9-6.5l4.3,7.3c-31.5-2.6-63-4.1-94.7-4.2l4.1-5.5c-1.5-0.4-8.5,3.4-8.5,3.4l6.1-18.7c-8,0.7-12.1,19.8-12.1,19.8l-9-6.5l4.6,7.7
	c-18.2,0.2-36.5,1.1-54.5,2.6c4.1-8.6,18.1-16.8,18.1-16.8c-10.6,2.3-16.2,6-19.1,9.5c-0.3-17.8,3.9-35.4,12.4-52.1
	c0,0-22,33.6-19.1,56.1l0.3,4c-18.6,1.9-27.9,3.8-27.9,3.8L803.5,540.2z"/>
</svg>
