<?xml version="1.0" encoding="utf-8"?>
<!-- Generator: Adobe Illustrator 23.1.1, SVG Export Plug-In . SVG Version: 6.00 Build 0)  -->
<svg version="1.1" id="Layer_1" xmlns="http://www.w3.org/2000/svg" xmlns:xlink="http://www.w3.org/1999/xlink" x="0px" y="0px"
	 viewBox="0 0 1055.5 773.8" style="enable-background:new 0 0 1055.5 773.8;" xml:space="preserve">
<style type="text/css">
	.st0{opacity:0.1;fill:#10AB7C;enable-background:new    ;}
	.st1{fill:#3F3D56;}
	.st2{opacity:0.1;enable-background:new    ;}
	.st3{opacity:0.1;}
	.st4{fill:#10AB7C;}
	.st5{fill:#F2F2F2;}
	.st6{fill:#3A3768;}
	.st7{fill:#E6E8EC;}
	.st8{fill:#10AB7C;enable-background:new    ;}
	.st9{fill:#F7F7FD;}
	.st10{fill:#00877C;}
	.st11{fill:none;stroke:#565987;stroke-miterlimit:10;}
	.st12{fill:#10877C;}
	.st13{fill:#FF7F66;}
	.st14{fill:#FFD037;}
	.st15{fill:#A8A8A8;}
	.st16{opacity:0.2;enable-background:new    ;}
	.st17{opacity:0.1;fill:#10877C;enable-background:new    ;}
	.st18{fill:url(#SVGID_1_);}
	.st19{fill:#DB8B8B;}
	.st20{fill:#C17174;}
	.st21{fill:#474463;}
	.st22{fill:#274991;}
	.st23{opacity:5.000000e-02;fill:#005AD4;enable-background:new    ;}
	.st24{fill:#005AD4;}
	.st25{fill:#464353;}
	.st26{fill:#11877C;}
	.st27{fill:none;stroke:#2F2E41;stroke-width:2;stroke-miterlimit:10;}
	.st28{opacity:0.54;fill:#005AD4;}
	.st29{opacity:0.4;fill:#FF7F66;enable-background:new    ;}
	.st30{opacity:0.8;fill:#FF7F66;enable-background:new    ;}
	.st31{opacity:0.4;fill:#10AB7C;enable-background:new    ;}
	.st32{opacity:0.8;fill:#10AB7C;enable-background:new    ;}
	.st33{fill:#FFFFFF;}
	.st34{opacity:5.000000e-02;stroke:#10AB7C;stroke-width:0.25;stroke-miterlimit:10;}
	.st35{font-family:'Arial-Black';}
	.st36{font-size:102.5456px;}
</style>
<path class="st0" d="M972.5,529.3L868.8,349.7c-0.9-1.6-2.9-2.1-4.5-1.2c-0.5,0.3-0.9,0.7-1.2,1.2L759.3,529.3
	c-0.9,1.6-0.4,3.6,1.1,4.5c0.5,0.3,1.1,0.5,1.7,0.5h30.9c1.8,0,3.3,1.5,3.3,3.3V576c0,1.8,1.5,3.3,3.3,3.3h40.4
	c1.8,0,3.3-1.5,3.3-3.3v-18.5c0-1.8,1.5-3.3,3.3-3.3h38.4c1.8,0,3.3,1.5,3.3,3.3V576c0,1.8,1.5,3.3,3.3,3.3h40.4
	c1.8,0,3.3-1.5,3.3-3.3v-38.4c0-1.8,1.5-3.3,3.3-3.3h30.9c1.8,0,3.3-1.5,3.3-3.3C972.9,530.4,972.8,529.8,972.5,529.3z M827.9,549.2
	c-0.6,0.6-1.5,1-2.3,1H811c-1.8,0-3.3-1.5-3.3-3.3c0-1.8,1.5-3.3,3.3-3.3h14.6c1.8,0,3.3,1.5,3.3,3.3
	C828.9,547.8,828.5,548.6,827.9,549.2L827.9,549.2z M923.1,549.2c-0.6,0.6-1.5,1-2.3,1h-14.5c-1.8,0-3.3-1.5-3.3-3.3
	c0-1.8,1.5-3.3,3.3-3.3h14.6c1.8,0,3.3,1.5,3.3,3.3C924.2,547.8,923.8,548.6,923.1,549.2L923.1,549.2z"/>
<path class="st0" d="M331.4,530.9L227.7,351.2c-0.9-1.6-2.9-2.1-4.5-1.2c-0.5,0.3-0.9,0.7-1.2,1.2l-89.6,155.2
	c11.2,14.1,23.8,27.1,37.5,38.7h14.6c1.8,0,3.3,1.5,3.3,3.3c0,1.8-1.5,3.3-3.3,3.3h-6.2c7.5,5.7,15.6,10.7,24,14.9V559
	c0-1.8,1.5-3.3,3.3-3.3H244c1.8,0,3.3,1.5,3.3,3.3v18.5c0,0.5,0.1,1,0.3,1.4c0.5,1.2,1.7,1.9,3,1.9H291c1,0,2-0.5,2.6-1.3
	c0.4-0.6,0.7-1.3,0.7-2v-38.3c0-1.8,1.5-3.3,3.3-3.3h30.9c1.8,0,3.3-1.5,3.3-3.3C331.9,532,331.7,531.4,331.4,530.9z M262.9,546.1
	c0.6-0.6,1.5-1,2.3-1h14.6c1.8,0,3.3,1.5,3.3,3.3c0,1.8-1.5,3.3-3.3,3.3h-14.6c-1.8,0-3.3-1.5-3.3-3.3
	C261.9,547.5,262.2,546.7,262.9,546.1L262.9,546.1z M197.7,479.6c-1.8,0-3.3-1.5-3.3-3.3v-25.1c0-1.8,1.5-3.3,3.3-3.3H252
	c1.8,0,3.3,1.5,3.3,3.3v25.1c0,1.8-1.5,3.3-3.3,3.3H197.7z"/>
<path class="st0" d="M741.4,208.2H613v-27.8c0-3.7-3-6.6-6.6-6.6l0,0h-37.7v-29.6c0-2.3-1.9-4.2-4.2-4.2H516c-2.3,0-4.2,1.9-4.2,4.2
	v29.6h-44.3c-3.7,0-6.6,3-6.6,6.6v0v27.8H338.5c-0.7,0-1.3,0.6-1.3,1.4V578c0,0.7,0.6,1.3,1.3,1.3h81.3c0.7,0,1.4-0.6,1.4-1.3v-49.6
	c0-0.7,0.6-1.3,1.4-1.3h34.4c0.7,0,1.3,0.6,1.3,1.3V578c0,0.7,0.6,1.3,1.3,1.3h160.7c0.7,0,1.3-0.6,1.3-1.3v-49.6
	c0-0.7,0.6-1.3,1.3-1.3h34.4c0.7,0,1.3,0.6,1.3,1.3V578c0,0.7,0.6,1.3,1.3,1.3h81.3c0.7,0,1.3-0.6,1.3-1.3V209.5
	C742.7,208.8,742.1,208.2,741.4,208.2z M406.6,509.9c0,0.7-0.6,1.3-1.3,1.3h0H355c-0.7,0-1.3-0.6-1.3-1.3c0,0,0,0,0,0v-17.1
	c0-0.7,0.6-1.3,1.4-1.3h50.2c0.7,0,1.3,0.6,1.3,1.3L406.6,509.9z M406.6,465.5c0,0.7-0.6,1.3-1.3,1.3c0,0,0,0,0,0H355
	c-0.7,0-1.3-0.6-1.4-1.3c0,0,0,0,0,0v-17.1c0-0.7,0.6-1.3,1.3-1.3c0,0,0,0,0,0h50.2c0.7,0,1.3,0.6,1.3,1.3c0,0,0,0,0,0L406.6,465.5z
	 M406.6,421.2c0,0.7-0.6,1.3-1.3,1.3H355c-0.7,0-1.4-0.6-1.4-1.3v-17.2c0-0.7,0.6-1.3,1.4-1.3h50.2c0.7,0,1.3,0.6,1.3,1.3
	L406.6,421.2z M406.6,376.9c0,0.7-0.6,1.3-1.3,1.3c0,0,0,0,0,0H355c-0.7,0-1.3-0.6-1.4-1.3c0,0,0,0,0,0v-17.1c0-0.7,0.6-1.3,1.3-1.3
	c0,0,0,0,0,0h50.2c0.7,0,1.3,0.6,1.3,1.3c0,0,0,0,0,0L406.6,376.9z M406.6,332.5c0,0.7-0.6,1.3-1.3,1.3H355c-0.7,0-1.4-0.6-1.4-1.3
	v-17.2c0-0.7,0.6-1.3,1.3-1.3c0,0,0,0,0,0h50.2c0.7,0,1.3,0.6,1.3,1.3l0,0L406.6,332.5z M406.6,288.2c0,0.7-0.6,1.3-1.3,1.3H355
	c-0.7,0-1.3-0.6-1.3-1.3c0,0,0,0,0,0v-17.2c0-0.7,0.6-1.4,1.4-1.4l0,0h50.2c0.7,0,1.3,0.6,1.3,1.4L406.6,288.2z M406.6,243.9
	c0,0.7-0.6,1.3-1.3,1.3c0,0,0,0,0,0H355c-0.7,0-1.3-0.6-1.4-1.3c0,0,0,0,0,0v-17.1c0-0.7,0.6-1.3,1.3-1.4c0,0,0,0,0,0h50.2
	c0.7,0,1.3,0.6,1.3,1.3c0,0,0,0,0,0L406.6,243.9z M525.7,509.9c0,0.7-0.6,1.3-1.3,1.3c0,0,0,0,0,0h-50.2c-0.7,0-1.3-0.6-1.3-1.3
	v-17.1c0-0.7,0.6-1.3,1.3-1.3h50.2c0.7,0,1.3,0.6,1.3,1.3L525.7,509.9z M525.7,465.5c0,0.7-0.6,1.3-1.3,1.3c0,0,0,0,0,0h-50.2
	c-0.7,0-1.3-0.6-1.3-1.3v-17.1c0-0.7,0.6-1.3,1.3-1.3h50.2c0.7,0,1.3,0.6,1.3,1.3c0,0,0,0,0,0L525.7,465.5z M525.7,421.2
	c0,0.7-0.6,1.3-1.3,1.3h-50.2c-0.7,0-1.3-0.6-1.3-1.3v-17.1c0-0.7,0.6-1.3,1.3-1.3h50.2c0.7,0,1.3,0.6,1.3,1.3L525.7,421.2z
	 M525.7,376.9c0,0.7-0.6,1.3-1.3,1.3c0,0,0,0,0,0h-50.2c-0.7,0-1.3-0.6-1.3-1.3v-17.1c0-0.7,0.6-1.3,1.3-1.3h50.2
	c0.7,0,1.3,0.6,1.3,1.3c0,0,0,0,0,0L525.7,376.9z M525.7,332.5c0,0.7-0.6,1.3-1.3,1.3h-50.2c-0.7,0-1.3-0.6-1.3-1.3v-17.1
	c0-0.7,0.6-1.3,1.3-1.3h50.2c0.7,0,1.3,0.6,1.3,1.3c0,0,0,0,0,0L525.7,332.5z M525.7,288.2c0,0.7-0.6,1.3-1.3,1.3c0,0,0,0,0,0h-50.2
	c-0.7,0-1.3-0.6-1.3-1.3v-17.1c0-0.7,0.6-1.3,1.3-1.4h50.2c0.7,0,1.3,0.6,1.3,1.4L525.7,288.2z M525.7,243.9c0,0.7-0.6,1.3-1.3,1.4
	c0,0,0,0,0,0h-50.2c-0.7,0-1.3-0.6-1.3-1.4v-17.1c0-0.7,0.6-1.4,1.3-1.4h50.2c0.7,0,1.3,0.6,1.3,1.3c0,0,0,0,0,0L525.7,243.9z
	 M607.1,509.9c0,0.7-0.6,1.3-1.3,1.3c0,0,0,0,0,0h-50.2c-0.7,0-1.3-0.6-1.3-1.3v-17.1c0-0.7,0.6-1.3,1.3-1.3h50.2
	c0.7,0,1.3,0.6,1.3,1.3L607.1,509.9z M607.1,465.5c0,0.7-0.6,1.3-1.3,1.3c0,0,0,0,0,0h-50.2c-0.7,0-1.3-0.6-1.3-1.3v-17.1
	c0-0.7,0.6-1.3,1.3-1.3h50.2c0.7,0,1.3,0.6,1.3,1.3c0,0,0,0,0,0L607.1,465.5z M607.1,421.2c0,0.7-0.6,1.3-1.3,1.3h-50.2
	c-0.7,0-1.3-0.6-1.3-1.3v-17.1c0-0.7,0.6-1.3,1.3-1.3h50.2c0.7,0,1.3,0.6,1.3,1.3L607.1,421.2z M607.1,376.9c0,0.7-0.6,1.3-1.3,1.3
	c0,0,0,0,0,0h-50.2c-0.7,0-1.3-0.6-1.3-1.3v-17.1c0-0.7,0.6-1.3,1.3-1.3h50.2c0.7,0,1.3,0.6,1.3,1.3c0,0,0,0,0,0L607.1,376.9z
	 M607.1,332.5c0,0.7-0.6,1.3-1.3,1.3h-50.2c-0.7,0-1.3-0.6-1.3-1.3v-17.1c0-0.7,0.6-1.3,1.3-1.3h50.2c0.7,0,1.3,0.6,1.3,1.3
	c0,0,0,0,0,0L607.1,332.5z M607.1,288.2c0,0.7-0.6,1.3-1.3,1.3c0,0,0,0,0,0h-50.2c-0.7,0-1.3-0.6-1.3-1.3v-17.1
	c0-0.7,0.6-1.3,1.3-1.4h50.2c0.7,0,1.3,0.6,1.3,1.4L607.1,288.2z M607.1,243.9c0,0.7-0.6,1.3-1.3,1.4c0,0,0,0,0,0h-50.2
	c-0.7,0-1.3-0.6-1.3-1.4v-17.1c0-0.7,0.6-1.4,1.3-1.4h50.2c0.7,0,1.3,0.6,1.3,1.3c0,0,0,0,0,0L607.1,243.9z M726.2,509.9
	c0,0.7-0.6,1.3-1.3,1.3h-50.2c-0.7,0-1.3-0.6-1.3-1.3c0,0,0,0,0,0v-17.1c0-0.7,0.6-1.3,1.3-1.3h50.2c0.7,0,1.3,0.6,1.3,1.3
	L726.2,509.9z M726.2,465.5c0,0.7-0.6,1.3-1.3,1.3h-50.2c-0.7,0-1.3-0.6-1.3-1.3c0,0,0,0,0,0v-17.1c0-0.7,0.6-1.3,1.3-1.3
	c0,0,0,0,0,0h50.2c0.7,0,1.3,0.6,1.3,1.3L726.2,465.5z M726.2,421.2c0,0.7-0.6,1.3-1.3,1.3h-50.2c-0.7,0-1.3-0.6-1.3-1.3v-17.1
	c0-0.7,0.6-1.3,1.3-1.3h50.2c0.7,0,1.3,0.6,1.3,1.3L726.2,421.2z M726.2,376.8c0,0.7-0.6,1.3-1.3,1.3h-50.2c-0.7,0-1.3-0.6-1.3-1.3
	c0,0,0,0,0,0v-17.1c0-0.7,0.6-1.3,1.3-1.3c0,0,0,0,0,0h50.2c0.7,0,1.3,0.6,1.3,1.3L726.2,376.8z M726.2,332.5c0,0.7-0.6,1.3-1.3,1.3
	h-50.2c-0.7,0-1.3-0.6-1.3-1.3v-17.1c0-0.7,0.6-1.3,1.3-1.3c0,0,0,0,0,0h50.2c0.7,0,1.3,0.6,1.3,1.3L726.2,332.5z M726.2,288.2
	c0,0.7-0.6,1.4-1.3,1.4c0,0,0,0,0,0h-50.2c-0.7,0-1.3-0.6-1.3-1.3c0,0,0,0,0,0v-17.2c0-0.7,0.6-1.4,1.3-1.4h50.2
	c0.7,0,1.3,0.6,1.3,1.4L726.2,288.2z M726.2,243.8c0,0.7-0.6,1.4-1.3,1.4h-50.2c-0.7,0-1.3-0.6-1.3-1.3c0,0,0,0,0,0v-17.1
	c0-0.7,0.6-1.3,1.3-1.4c0,0,0,0,0,0h50.2c0.7,0,1.3,0.6,1.3,1.4L726.2,243.8z"/>
<path class="st0" d="M375.9,108.3c-5.6-1.1-11.5-0.4-16.8,1.8c-6.4,2.9-13.8,2.9-20.2-0.1c-7.6-3.3-16.2-3.2-23.7,0.5
	c-2.1,1.1-4.4,1.7-6.8,1.7c-9.6,0-17.6-9.7-19.2-22.4c1.9-1.4,3.5-3.2,4.8-5.2c5.6-9.1,14.4-14.9,24.1-14.9s18.4,5.8,24,14.7
	c3.4,5.5,9.5,8.8,16,8.8h0.2C366,93.2,372.6,99.3,375.9,108.3z"/>
<path class="st0" d="M405.1,68.2l-15.5,9.8l9.4-17.1c-2.7-2.1-6-3.3-9.4-3.4h-0.2c-1.1,0-2.2-0.1-3.2-0.2l-5.2,3.3l2.3-4.1
	c-3.7-1.3-6.9-3.8-9.2-7l-9.4,6l5.9-10.8c-5.5-6.6-12.9-10.7-21.1-10.7c-9.8,0-18.5,5.8-24.1,14.9c-3.4,5.5-9.5,8.8-16,8.6h-0.5
	c-10.8,0-19.6,12.2-19.6,27.4s8.8,27.4,19.6,27.4c2.4,0,4.7-0.6,6.8-1.7c7.4-3.6,16.1-3.8,23.7-0.5c6.4,2.9,13.7,2.9,20.1,0
	c7.5-3.3,16.1-3.1,23.5,0.5c2.1,1.1,4.4,1.7,6.7,1.7c10.8,0,19.6-12.3,19.6-27.4C409.2,79.1,407.8,73.4,405.1,68.2z"/>
<path class="st0" d="M836.9,290.8c-4-0.7-8-0.3-11.7,1.3c-4.5,2-9.6,2-14.1,0c-5.3-2.3-11.4-2.2-16.6,0.3c-1.5,0.8-3.1,1.2-4.8,1.2
	c-6.7,0-12.3-6.8-13.5-15.7c1.3-1,2.5-2.2,3.4-3.6c3.9-6.4,10-10.4,16.9-10.4s12.9,4,16.8,10.3c2.4,3.9,6.6,6.2,11.2,6.1h0.2
	C829.9,280.2,834.5,284.5,836.9,290.8z"/>
<path class="st0" d="M857.3,262.8l-10.9,6.9l6.6-12c-1.9-1.5-4.2-2.3-6.6-2.3h-0.2c-0.8,0-1.5,0-2.2-0.2l-3.7,2.3l1.6-2.9
	c-2.6-0.9-4.9-2.6-6.4-4.9l-6.6,4.2l4.2-7.6c-3.8-4.6-9-7.5-14.8-7.5c-6.8,0-13,4.1-16.9,10.4c-2.4,3.9-6.6,6.2-11.2,6h-0.3
	c-7.6,0-13.7,8.6-13.7,19.1s6.1,19.2,13.7,19.2c1.7,0,3.3-0.4,4.8-1.2c5.2-2.5,11.3-2.7,16.6-0.3c4.5,2,9.6,2,14.1,0
	c5.3-2.3,11.3-2.2,16.4,0.3c1.5,0.8,3.1,1.2,4.7,1.2c7.6,0,13.7-8.6,13.7-19.2C860.2,270.3,859.2,266.3,857.3,262.8z"/>
<path class="st0" d="M243.5,226.8c4-0.7,8-0.3,11.7,1.3c4.5,2,9.6,2,14.1,0c5.3-2.3,11.4-2.2,16.6,0.3c1.5,0.8,3.1,1.2,4.8,1.2
	c6.7,0,12.3-6.8,13.5-15.7c-1.3-1-2.5-2.2-3.4-3.6c-3.9-6.4-10-10.5-16.9-10.5s-12.9,4-16.8,10.3c-2.4,3.9-6.6,6.2-11.2,6.1h-0.2
	C250.4,216.2,245.7,220.5,243.5,226.8z"/>
<path class="st0" d="M223,198.8l10.9,6.9l-6.6-12c1.9-1.5,4.2-2.3,6.6-2.3h0.2c0.8,0,1.5,0,2.2-0.2l3.7,2.3l-1.6-2.9
	c2.6-0.9,4.9-2.6,6.5-4.9l6.6,4.2l-4.2-7.6c3.9-4.6,9.1-7.5,14.8-7.5c6.9,0,13,4.1,16.9,10.4c2.4,3.9,6.6,6.2,11.2,6h0.4
	c7.6,0,13.7,8.6,13.7,19.1s-6.1,19.2-13.7,19.2c-1.7,0-3.3-0.4-4.8-1.2c-5.2-2.5-11.3-2.7-16.6-0.3c-4.5,2-9.6,2-14.1,0
	c-5.3-2.3-11.3-2.2-16.4,0.3c-1.5,0.8-3.1,1.2-4.7,1.2c-7.6,0-13.7-8.6-13.7-19.2C220.1,206.3,221.1,202.3,223,198.8z"/>
<path class="st1" d="M223.5,583.9c13.5,8.6,33.1-0.1,46.7,8.4c3.5,2.2,6.4,5.4,10,7.4c4.4,2.4,9.5,2.8,14.5,3
	c41.6,1.6,83.9-10,124.5-0.6c11.4,2.6,22.5,6.9,34.1,7.5c20.1,1.1,39.3-8.7,59.4-9.2c30.5-0.8,60.5,19.6,89.9,11.5
	c9.7-2.7,18.6-8.3,28.5-9.2c11.1-1,21.8,3.8,32.7,6.7c38.4,10,78.3-6.2,118-7.4c25.9-0.8,51.5,4.8,77.3,6.2
	c18.4,0.9,36.8-0.4,55.2-1.7c7-0.5,14.3-1.1,20.2-4.9s9.5-12.1,5.8-18.1L223.5,583.9z"/>
<path class="st2" d="M223.5,583.9c13.5,8.6,33.1-0.1,46.7,8.4c3.5,2.2,6.4,5.4,10,7.4c4.4,2.4,9.5,2.8,14.5,3
	c41.6,1.6,83.9-10,124.5-0.6c11.4,2.6,22.5,6.9,34.1,7.5c20.1,1.1,39.3-8.7,59.4-9.2c30.5-0.8,60.5,19.6,89.9,11.5
	c9.7-2.7,18.6-8.3,28.5-9.2c11.1-1,21.8,3.8,32.7,6.7c38.4,10,78.3-6.2,118-7.4c25.9-0.8,51.5,4.8,77.3,6.2
	c18.4,0.9,36.8-0.4,55.2-1.7c7-0.5,14.3-1.1,20.2-4.9s9.5-12.1,5.8-18.1L223.5,583.9z"/>
<path class="st1" d="M223.5,578.9c13.5,8.6,33.1-0.1,46.7,8.4c3.5,2.2,6.4,5.4,10,7.4c4.4,2.4,9.5,2.8,14.5,3
	c41.6,1.6,83.9-10,124.5-0.6c11.4,2.6,22.5,6.9,34.1,7.5c20.1,1.1,39.3-8.7,59.4-9.2c30.5-0.8,60.5,19.6,89.9,11.5
	c9.7-2.7,18.6-8.3,28.5-9.2c11.1-1,21.8,3.8,32.7,6.7c38.4,10,78.3-6.2,118-7.4c25.9-0.8,51.5,4.8,77.3,6.2
	c18.4,0.9,36.8-0.4,55.2-1.7c7-0.5,14.3-1.1,20.2-4.9s9.5-12.1,5.8-18.1L223.5,578.9z"/>
<g class="st3">
	<path class="st1" d="M127.2,455.7c0,4.3-1.1,8.6-3.2,12.4c4.3,7.7,4.3,17.1,0,24.8c1.1,1.9,1.9,3.9,2.4,6
		c-10.9-14.4-21-29.4-30.1-45l0,0c0.2-3.7,1.3-7.3,3.2-10.6c-2.2-3.8-3.3-8-3.2-12.4c0-2.9,0.5-5.8,1.5-8.6c0.5-1.3,1.1-2.6,1.8-3.8
		c2.8-4.8,7.3-7.9,12.2-7.9s9.4,3.1,12.2,7.9c0.7,1.2,1.3,2.4,1.7,3.7c1,2.8,1.5,5.8,1.5,8.7c0,4.3-1.1,8.6-3.2,12.4
		C126.1,447,127.3,451.3,127.2,455.7z"/>
	<ellipse class="st1" cx="111.7" cy="406.2" rx="15.5" ry="20.3"/>
	<ellipse class="st1" cx="111.7" cy="381.4" rx="15.5" ry="20.3"/>
	<path class="st4" d="M185.5,257.8c0,16.6-5.6,32.8-15.9,45.8c25.3,32.2,19.7,78.8-12.4,104.1c-9.2,7.3-20,12.2-31.6,14.5
		c-1.8,0.4-3.6,0.6-5.4,0.9c-5.6,0.7-11.3,0.7-17,0.1c-1.9-0.2-3.7-0.5-5.6-0.8c-8.1-1.5-15.9-4.3-23-8.4
		c-13.3-27.2-24.9-55.2-34.8-83.8c2.6-9.6,7.1-18.6,13.3-26.5c-15.5-19.7-20-45.9-12-69.6l56.3,18.9l-52.8-27.4
		c2.3-4.8,5.2-9.3,8.4-13.5c-25.3-32.2-19.8-78.8,12.4-104.1s78.8-19.8,104.1,12.4c2.2,2.8,4.2,5.7,5.9,8.7l-54.4,40l59-30.6
		c7.6,18.9,7.1,40.2-1.4,58.7l-44-0.3l40.7,6.7c-1.7,3-3.7,5.8-5.8,8.5C179.9,225,185.5,241.1,185.5,257.8z"/>
	<path class="st2" d="M185.5,349.5c0,35.4-25.1,65.9-59.8,72.7c-1.8,0.4-3.6,0.6-5.4,0.9c-5.6,0.7-11.3,0.7-17,0.1
		c-1.9-0.2-3.7-0.5-5.6-0.8c-8.1-1.5-15.9-4.3-23-8.4c-13.3-27.2-25-55.2-34.9-83.8c2.6-9.6,7.1-18.6,13.3-26.5
		c-10.3-13.1-15.9-29.2-15.9-45.9c0-8.3,142.3,33.2,132.4,45.8C180,316.6,185.6,332.8,185.5,349.5z"/>
</g>
<g class="st3">
	<path class="st1" d="M1019.8,436.4c-2.9,9.3-6,18.5-9.2,27.4c-0.9-2.6-1.3-5.4-1.3-8.2C1009.3,446.7,1013.7,439.1,1019.8,436.4z"/>
	<path class="st4" d="M1050.9,276.8c0,17.5-3.5,45.3-10,77c-5.7,27.9-12.7,55.4-21.2,82.6c-2.9,9.3-6,18.5-9.2,27.4
		c-3.7,10.2-7.5,20.1-11.5,29.6c-38.6-14.2-58.4-56.9-44.2-95.5c2.7-7.3,6.5-14.1,11.3-20.3c-15.5-19.7-20-46-12-69.8l56.3,18.9
		l-52.8-27.5c2.3-4.8,5.2-9.3,8.4-13.5c-25.4-32.3-19.7-79.1,12.6-104.5c5.1-4,10.6-7.3,16.5-9.8c22.7,15.5,39.8,37.9,48.8,63.9
		l-9.7,7.3l10.5-5.4c3.5,10.8,5.6,22,6.1,33.3h-2.9l3,0.5C1050.9,273,1050.9,274.9,1050.9,276.8z"/>
	<path class="st2" d="M1040.9,353.8c-5.7,27.9-12.7,55.4-21.2,82.6c-2.9,9.3-6,18.5-9.2,27.4c-3.7,10.2-7.5,20.1-11.5,29.6
		c-38.6-14.2-58.4-56.9-44.2-95.5c2.7-7.3,6.5-14.1,11.3-20.3c-10.3-13.1-15.9-29.3-15.9-45.9C950.3,326.8,1002,339.9,1040.9,353.8z
		"/>
</g>
<path class="st0" d="M956.8,298c0-0.1,0-0.3,0-0.4c-0.5-10.3-2.3-20.5-5.5-30.3c-0.2-0.6-0.4-1.1-0.6-1.7
	c-8.1-23.7-23.7-44.1-44.4-58.2c-47.9-32.7-112.7-24.7-151.2,18.7c-1.9-11-5-21.9-9.2-32.3c-30.4,3.8-61,5-91.6,3.4
	c18.7,8.6,38.2,15.7,58.1,21.1l-0.7,2.6c-22.3-6.1-44.1-14.2-64.9-24.3l-6.3-3l7,0.5c32.5,2.1,65.1,1.2,97.4-2.8
	c-7-16.7-16.7-32.1-28.7-45.6c-52.4-5.3-104.4-16.3-152.9-38.1l1.1-2.5c47.2,21.2,97.9,32.1,149,37.5c-61.6-66.1-165.2-69.7-231.2-8
	c-11.2,10.5-20.9,22.5-28.8,35.7c-4.8-46.9-24.3-91.2-55.7-126.4C369.6,55,340.7,63.7,311.2,70c-44.3,9.4-89.6,13-134.8,10.7
	c18.7,8.6,38.2,15.7,58.1,21.1l-0.7,2.6c-22.3-6.1-44.1-14.2-64.9-24.3l-6.3-3l7,0.5c77.1,5.1,154.3-7.2,226-35.8
	c-2.7-3-5.5-5.8-8.3-8.7c-89.6,1.8-187.1,0.9-275.5-31.2C45.3,42.9,4.8,115.5,4.9,193.7c0,42.3,11.6,100.4,31.9,158.8
	c9,26.1,19.6,51.6,31.8,76.5c6.2,12.6,12.7,24.8,19.6,36.5l0,0c8.3,14.2,17.5,27.9,27.4,41c1.8,2.3,3.6,4.7,5.4,6.9
	c10.2,12.9,21.6,24.7,34.1,35.4l0,0c2.5,2.1,5.1,4.1,7.6,6c6.9,5.2,14.2,9.8,21.8,13.7c13.4,6.7,27.1,10.6,41.2,11.2
	c1.1,0,2.3,0.1,3.4,0.1v0.5h611.6v-0.5h0.5c3.5,0,7-0.6,10.3-1.8c21.6-7.7,41.5-38.5,58.1-77.4c3.6-8.6,7.2-17.7,10.5-26.9
	c2.9-8.2,5.7-16.5,8.4-25c7.7-24.7,14.1-49.8,19.2-75.1c5.8-28.9,9.1-54.1,9.1-70.1C956.9,301.4,956.9,299.7,956.8,298z"/>
<path class="st5" d="M646.2,585.8c0,3.9,1.4,7.7,3.8,10.8c0.7,0.9,1.7,1.7,2.7,2.2c1.6,0.7,3.3,0.9,5,0.8c4.8-0.1,9.5-1.1,13.9-2.8
	c1.6-0.7,3.2-1.3,4.8-1.8c2.1-0.4,4.1-0.7,6.2-0.9c8.3-1.2,15.5-6.1,23.5-8.5c2.4-0.6,4.7-1.4,7-2.3c3.2-1.5,5.7-4,8.2-6.4
	c1.5-1.3,2.8-2.8,3.8-4.5c1.5-2.7,1.6-6,1.6-9.1c0.1-0.5,0-1-0.2-1.4c-0.2-0.3-0.5-0.6-0.9-0.7c-2.4-1.2-5.3-0.6-8-0.1
	c-9.7,1.7-19.7,1.4-29.5,1.1c-1.9,0.3-3.8-0.8-4.5-2.6l-3.8-6c-1.1-1.7-2.8-3.7-4.7-3.1c-1.5,0.5-2.2,2.4-2.1,4s0.6,3.2,0.2,4.8
	c-0.4,1.8-1.6,3.3-3.2,4.2c-1.6,0.9-3.3,1.5-5,1.9c-5.5,1.6-11.9,3.3-16.2,7.4C645.7,575.4,646,581.9,646.2,585.8z"/>
<path class="st6" d="M661.6,143.4L661.6,143.4c0.1,0.1,0.1,0.2,0,0.3l-0.8,1.2c-0.1,0.1-0.2,0.1-0.3,0l0,0c-0.1-0.1-0.1-0.2,0-0.3
	l0.8-1.2C661.4,143.4,661.6,143.4,661.6,143.4z"/>
<path class="st7" d="M672,145.1l2,1.5c0.1,0.1,0.2,0.3,0.1,0.4l0,0c-0.1,0.1-0.3,0.2-0.4,0.1l-2-1.5c-0.1-0.1-0.2-0.3-0.1-0.4l0,0
	C671.7,145.1,671.9,145,672,145.1z"/>
<circle class="st7" cx="674.8" cy="147.5" r="0.4"/>
<title>server status</title>
<path class="st8" d="M344.3,491c34.9-13.7,89.7-16.5,139.6-15.4c156.7,3.4,298.1,36.8,420.4,74.5c44.3,13.7,87.9,28.4,116.6,47.2
	c58.5,38.3,41.2,91.4-40.2,122.9c-27.7,10.7-61.2,19-95.7,26.3c-61.3,13-127.4,23.4-196.9,26.4c-49.6,2.1-99.8,0.4-149.1-2.6
	c-137.7-8.3-272.9-26.4-386.2-57.7c-49.7-13.7-96.5-30.7-117-52.8s-7.4-50.2,43.4-63.2c21-5.4,46.1-7.9,70.7-10.2
	c36.2-3.4,72.9-6.7,105.5-13.6c33.7-7.1,73.6-20.8,66.9-36.5C315.2,519.5,309.4,504.7,344.3,491z"/>
<path class="st9" d="M668.1,469.7c0,7.5-47.3,50.5-155,50.5s-166-41.5-166-49s60.3,11,168,11S668.1,462.2,668.1,469.7z"/>
<ellipse class="st0" cx="380" cy="668.1" rx="11.5" ry="1.6"/>
<ellipse class="st0" cx="336.1" cy="672.5" rx="11.5" ry="1.6"/>
<ellipse class="st0" cx="284.4" cy="666.5" rx="11.5" ry="1.6"/>
<ellipse class="st0" cx="353.6" cy="685.2" rx="8.1" ry="1.1"/>
<ellipse class="st0" cx="308.1" cy="684.1" rx="8.1" ry="1.1"/>
<path class="st10" d="M355.6,723.4c0,0,16.1-52.7-2.5-73.8c-13.9-15.8-29.7-13.9-36.7-11.9c-3.7,1-6.8,3.5-8.4,7
	c-2.5,5.3-2,14,15.4,24.1c29.2,16.9,31,40.1,31,40.1L355.6,723.4z"/>
<path class="st11" d="M318.9,645.2c0,0,47.4,14.8,36.7,78.2"/>
<path class="st11" d="M346.5,650.5c0,0-6.5,4.4-4.5,11"/>
<path class="st11" d="M323.6,654.4c0,0,4-4.1,8.8-1.8"/>
<path class="st11" d="M342.4,674.8c0,0,7-3.5,8.8,0.9"/>
<path class="st11" d="M359.7,682.2c0,0-5.3-0.4-5.4,2.1"/>
<path class="st12" d="M356.3,723.8c0,0-18.8-38.3-24-37.4c-2.5,0.4-3.6,2.8-4.1,5.2c-0.6,3.1-0.3,6.4,1,9.3
	C331.9,707.1,339.1,718.7,356.3,723.8z"/>
<path class="st11" d="M332.4,693.6c0,0,19.8,28.6,23.6,29.9"/>
<line class="st11" x1="330.6" y1="698.1" x2="335.2" y2="698.1"/>
<line class="st11" x1="336.1" y1="708.6" x2="343.4" y2="708.9"/>
<line class="st11" x1="340.5" y1="700.2" x2="339.7" y2="704"/>
<line class="st11" x1="348.2" y1="711.7" x2="348.1" y2="715.1"/>
<path class="st12" d="M355.7,723.8c0,0,18.8-38.3,24-37.4c2.5,0.4,3.6,2.8,4.1,5.2c0.6,3.1,0.3,6.4-1,9.3
	C380.1,707.1,372.9,718.7,355.7,723.8z"/>
<path class="st11" d="M379.6,693.6c0,0-19.8,28.6-23.6,29.9"/>
<line class="st11" x1="381.4" y1="698.1" x2="376.8" y2="698.1"/>
<line class="st11" x1="375.9" y1="708.6" x2="368.6" y2="708.9"/>
<line class="st11" x1="371.5" y1="700.2" x2="372.2" y2="704"/>
<line class="st11" x1="363.8" y1="711.7" x2="363.9" y2="715.1"/>
<path class="st13" d="M303.6,681.5c-0.5-0.4-0.9-1-1.1-1.6c-0.2-0.7,0.1-1.3,0.8-1.6c0.7-0.3,1.4,0.2,2,0.7c0.5,0.6,1.2,0.9,1.9,0.9
	c-0.8-0.7-1.1-1.7-0.9-2.7c0-0.2,0.1-0.4,0.3-0.6c0.4-0.4,1.1-0.2,1.5,0.1c1.5,1,1.9,3,1.9,4.8c0.1-0.7,0.1-1.3,0-2
	c-0.1-0.7,0.2-1.3,0.7-1.7c0.3-0.2,0.7-0.3,1.1-0.3c0.7-0.1,1.3,0.1,1.8,0.5c0.5,0.7,0.5,1.6-0.1,2.2c-0.5,0.6-1.2,1.1-1.9,1.5
	c-0.5,0.3-1,0.8-1.4,1.3c0,0.1-0.1,0.1-0.1,0.2h-4.1C305.2,682.8,304.4,682.2,303.6,681.5z"/>
<path class="st13" d="M779.6,595.7c-0.5-0.4-0.9-1-1.1-1.6c-0.2-0.7,0.1-1.3,0.8-1.7c0.7-0.1,1.5,0.1,2,0.7c0.5,0.6,1.2,0.9,1.9,0.9
	c-0.8-0.7-1.1-1.7-0.9-2.7c0-0.2,0.1-0.4,0.3-0.5c0.4-0.4,1.1-0.2,1.5,0.1c1.5,1,1.8,3,1.9,4.8c0.1-0.7,0.1-1.3,0-2
	c-0.1-0.7,0.2-1.3,0.7-1.7c0.3-0.2,0.7-0.3,1.1-0.3c0.7-0.1,1.3,0.1,1.8,0.5c0.5,0.7,0.5,1.6-0.1,2.2c-0.5,0.6-1.2,1.1-1.9,1.5
	c-0.5,0.3-1,0.8-1.3,1.3c0,0.1-0.1,0.1-0.1,0.2h-4.1C781.3,596.9,780.4,596.4,779.6,595.7z"/>
<path class="st13" d="M743.6,626.9c-0.5-0.4-0.9-1-1.1-1.6c-0.2-0.7,0.1-1.3,0.8-1.6c0.7-0.3,1.4,0.2,2,0.7c0.5,0.6,1.2,0.9,1.9,0.9
	c-0.8-0.7-1.1-1.7-0.9-2.7c0-0.2,0.1-0.4,0.2-0.6c0.4-0.4,1.1-0.2,1.5,0.1c1.5,1,1.9,3,1.9,4.8c0.1-0.7,0.1-1.3,0-2
	c-0.1-0.7,0.2-1.3,0.7-1.7c1-0.4,2.1-0.3,3,0.2c0.5,0.7,0.5,1.6-0.1,2.2c-0.5,0.6-1.2,1.1-1.9,1.5c-0.5,0.3-1,0.8-1.3,1.3
	c0,0.1-0.1,0.2-0.1,0.2h-4.1C745.2,628.2,744.3,627.6,743.6,626.9z"/>
<path class="st12" d="M283.6,650.4c0,0-1.5,2,0.7,5s4.1,5.6,3.4,7.5c0,0-3.4-5.6-6.1-5.7C278.8,657.1,280.6,653.8,283.6,650.4z"/>
<path class="st2" d="M283.6,650.4c-0.1,0.2-0.2,0.4-0.3,0.6c-2.7,3.2-4.1,6.1-1.5,6.2c2.4,0.1,5.3,4.4,6,5.5c0,0.1,0,0.2-0.1,0.2
	c0,0-3.4-5.6-6.1-5.7C278.8,657.1,280.6,653.8,283.6,650.4z"/>
<path class="st14" d="M280.8,652.9c0,0.7,0.1,1.3,0.2,1.3s0.2-0.6,0.2-1.3c0-0.7-0.1-0.4-0.2-0.4S280.8,652.2,280.8,652.9z"/>
<path class="st14" d="M279.8,653.8c0.6,0.3,1.2,0.5,1.2,0.5c0-0.1-0.4-0.4-1-0.8s-0.4-0.1-0.4,0
	C279.6,653.6,279.2,653.5,279.8,653.8z"/>
<path class="st12" d="M291.8,650.4c0,0,1.5,2-0.7,5s-4.1,5.6-3.3,7.5c0,0,3.4-5.6,6.1-5.7C296.6,657.1,294.8,653.8,291.8,650.4z"/>
<path class="st2" d="M291.8,650.4c0.1,0.2,0.2,0.4,0.3,0.6c2.7,3.2,4.1,6.1,1.5,6.2c-2.4,0.1-5.3,4.4-6,5.5c0,0.1,0,0.2,0.1,0.2
	c0,0,3.4-5.6,6.1-5.7C296.6,657.1,294.8,653.8,291.8,650.4z"/>
<path class="st14" d="M294.6,652.9c0,0.7-0.1,1.3-0.2,1.3s-0.2-0.6-0.2-1.3c0-0.7,0.1-0.4,0.2-0.4S294.6,652.2,294.6,652.9z"/>
<path class="st14" d="M295.6,653.8c-0.6,0.3-1.2,0.5-1.2,0.5c0-0.1,0.4-0.4,1-0.8s0.4-0.1,0.4,0
	C295.9,653.6,296.2,653.5,295.6,653.8z"/>
<path class="st15" d="M294.1,662.6c0,0-4.3-0.1-5.6-1s-6.6-2-6.9-0.5s-6.5,7.4-1.6,7.4c4.8,0,11.3-0.8,12.5-1.5
	C293.8,666.1,294.1,662.6,294.1,662.6z"/>
<path class="st16" d="M279.9,667.9c4.8,0,11.3-0.8,12.5-1.5c1-0.6,1.4-2.8,1.5-3.7h0.1c0,0-0.3,3.5-1.6,4.2
	c-1.3,0.8-7.7,1.6-12.5,1.5c-1.4,0-1.9-0.5-1.9-1.2C278.3,667.6,278.9,667.9,279.9,667.9z"/>
<ellipse class="st17" cx="355.7" cy="725.6" rx="27.2" ry="4"/>
<ellipse class="st0" cx="292.1" cy="538.9" rx="34.7" ry="5.1"/>
<ellipse class="st0" cx="149.5" cy="587.2" rx="34.7" ry="5.1"/>
<ellipse class="st0" cx="885.1" cy="693.4" rx="34.7" ry="5.1"/>
<ellipse class="st17" cx="448.9" cy="660" rx="23" ry="2.6"/>
<ellipse class="st17" cx="529.2" cy="660.2" rx="23" ry="2.6"/>
<ellipse class="st17" cx="612.4" cy="660.2" rx="23" ry="2.6"/>
<ellipse class="st17" cx="541.1" cy="723" rx="23" ry="2.6"/>
<ellipse class="st0" cx="208.2" cy="660.7" rx="23" ry="2.6"/>
<g class="st3">
	<ellipse cx="508.8" cy="239.5" rx="152.1" ry="67.9"/>
	<path d="M663.6,263.8c-6.7,35.4-73.2,63.2-154.3,63.2c-81.8,0-148.7-28.3-154.5-64.1h-0.6v57.7c26.7,27.9,85.9,47.4,154.7,47.4
		s127.9-19.4,154.7-47.4V263.8z"/>
	<path d="M663.6,334c-6.7,35.4-73.2,63.2-154.3,63.2c-81.8,0-148.7-28.3-154.5-64.1h-0.6v57.7c26.7,27.9,85.9,47.4,154.7,47.4
		s127.9-19.4,154.7-47.4V334z"/>
	<path d="M663.6,411.2c-6.7,35.4-73.2,63.2-154.3,63.2c-81.8,0-148.7-28.3-154.5-64.1h-0.6v62.2c0,2.7,1.1,5.2,3.1,7.1
		c28,25.7,85.4,35.8,151.6,35.8s123.5-10.1,151.6-35.8c2-1.8,3.1-4.4,3.1-7.1V411.2z"/>
</g>
<ellipse class="st4" cx="508.8" cy="235.5" rx="152.1" ry="67.9"/>
<path class="st4" d="M663.6,259.8c-6.7,35.4-73.2,63.2-154.3,63.2c-81.8,0-148.7-28.3-154.5-64.1h-0.6v57.7
	c26.7,27.9,85.9,47.4,154.7,47.4s127.9-19.4,154.7-47.4V259.8z"/>
<path class="st4" d="M663.6,330c-6.7,35.4-73.2,63.2-154.3,63.2c-81.8,0-148.7-28.3-154.5-64.1h-0.6v57.7
	c26.7,27.9,85.9,47.4,154.7,47.4s127.9-19.4,154.7-47.4V330z"/>
<path class="st4" d="M663.6,407.2c-6.7,35.4-73.2,63.2-154.3,63.2c-81.8,0-148.7-28.3-154.5-64.1h-0.6v62.2c0,2.7,1.1,5.2,3.1,7.1
	c28,25.7,85.4,35.8,151.6,35.8s123.5-10.1,151.6-35.8c2-1.8,3.1-4.4,3.1-7.1V407.2z"/>
<ellipse class="st0" cx="733" cy="571.2" rx="57" ry="10.3"/>
<linearGradient id="SVGID_1_" gradientUnits="userSpaceOnUse" x1="1096.6008" y1="135.6734" x2="1096.6008" y2="418.2652" gradientTransform="matrix(-1 0 0 -1 1831.76 710.91)">
	<stop  offset="0" style="stop-color:#808080;stop-opacity:0.25"/>
	<stop  offset="0.54" style="stop-color:#808080;stop-opacity:0.12"/>
	<stop  offset="1" style="stop-color:#808080;stop-opacity:0.1"/>
</linearGradient>
<path class="st18" d="M701,440.5c2.9,1.7,7.4,2.8,13.1-0.9l0,8.1c0.4,5.6,7.3,25.8,7.3,25.8l4.8,16.7c3.5,11.8,5.3,24,5.3,36.3
	c0,4.1,0.4,8.3,1.5,11.4c2.6,7-1,16-2.6,19.3c-2.6,0.9-5.3,1.6-8,2.2c-0.2,0.1-0.5,0.1-0.7,0.2v0c0,0-7.3,2.9-10.5,2.5
	c-2.4-0.3-3.9,2.7-2,4.9c-1.6,0.5-3.2,0.7-4.8,0.6c-3.2-0.4-4.9,5.2,1.2,6.8s40.5,0,40.5,0c2-1,3-3.2,2.6-5.4l4.3-0.2
	c0,0,6.1-2.8,0-10.3l-0.3,0.2l-1.3-3.8v-5.1c0,0,7.7-37,5.3-41.3c-2.4-4.3-3.7-26.7-3.7-26.7l0.8-24.2c2.2-4.5,3.3-11.6,3.9-17.2
	c0.8-2.6,1.3-5.4,1.5-8.1c0.1-1.3,0.2-2.7,0.2-4.1c0-3.1-0.5-6.2-1.5-9.2c2.7-4.1,5.8-7.9,9.2-11.5c2.8-2.6,4.2-6.5,3.7-10.3
	l-2-13.5l-4.9-23c0.6-6.4-0.7-10.1-2.2-12.1c0.3-2.1,0.7-4.1,0.9-6.2c1.1-9,0.6-18.1-1.4-27c-0.7-3.1-1.7-6.2-3.8-8.6
	c-2.5-2.7-6.4-4.3-7.3-7.7c-0.1-0.9-0.3-1.8-0.6-2.6c-0.9-2.3-3.7-3.1-6.2-3.4c-4.4-0.5-10.7-0.9-14.9,0.8c-3.7,1.6-6.7,4.5-8.6,8
	c-0.9,1.5-1.3,3.2-1,5c0.1,0.6,0.4,1.2,0.7,1.7c-2.9,7.9,1.1,16.7,8.9,19.7c0.1,0.3,0.2,0.6,0.3,0.9c0.2,0.7,0.3,1.4,0.4,2.2
	c-0.1,1.4-0.2,2.8-0.2,4.2l-0.2,0.6c-3.5,1.5-6.9,3.3-10.2,5.2c2.4,3.6-0.4,18.7-0.4,18.7c-6.1,3.6-12.1,12.7-5.7,22.2
	s2.8,19.9,2.8,19.9l-1,15.5l0,0l0,0l-0.2,3.1h0.1l-0.1,1.2h0.2v1.3c-2.8,1-7,3.1-9.5,7c-1.2,1.9-2.6,3.7-4.2,5.2
	c-1.3,1.1-1.5,3.1-0.3,4.4C700.4,440.1,700.7,440.3,701,440.5z M749.9,399.2c-0.2-2.7,0.3-5.4,1.4-7.8h2.9c0.1,0.6,0.2,1.3,0.3,1.9
	C755.4,396.9,752.1,398.5,749.9,399.2z"/>
<path class="st19" d="M750.7,553.2l1.6,4.7l-5.1,5.1l-16.7,3.9l-12.1-1.2l0.8-4.3l0,0c0.5-1.9,1.9-3.3,3.8-3.8
	c5-1.2,14.4-3.8,16.4-7.5L750.7,553.2z"/>
<path class="st2" d="M750.7,553.2l1.6,4.7l-5.1,5.1l-16.7,3.9l-12.1-1.2l0.8-4.3l0,0c0.5-1.9,1.9-3.3,3.8-3.8
	c5-1.2,14.4-3.8,16.4-7.5L750.7,553.2z"/>
<path class="st20" d="M722.3,564.5l2.3-3.1l-2.3-3.6c0,0-7,2.8-10.1,2.4s-4.7,5.1,1.2,6.6s38.9,0,38.9,0s5.8-2.7,0-10.1l-5.1,3.9
	c0,0-8.6,4.7-12.8,3.9L722.3,564.5z"/>
<path class="st19" d="M711.8,571.1l12.1,1.2l16.7-3.9l5.1-5.1l-0.4-1.2l-0.6-1.7l-0.6-1.7l-11.3-3.1c-0.6,0.9-1.4,1.7-2.3,2.3
	c-3.7,2.5-10.2,4.3-14.1,5.2c-0.2,0-0.3,0.1-0.5,0.2c-0.8,0.2-1.4,0.7-2,1.2c-0.7,0.7-1.2,1.5-1.4,2.4L711.8,571.1z"/>
<path class="st2" d="M711.8,571.1l12.1,1.2l16.7-3.9l5.1-5.1l-0.4-1.2l-4.7,3.6c0,0-8.6,4.7-12.8,3.9h-12.1l2.3-3.1l-2.1-3.2
	c-0.8,0.2-1.4,0.7-2,1.2c-0.7,0.7-1.2,1.5-1.4,2.4L711.8,571.1z"/>
<path class="st20" d="M715.6,570l2.3-3.1l-2.3-3.6c0,0-7,2.8-10.1,2.4s-4.7,5.1,1.2,6.6s38.9,0,38.9,0s5.8-2.7,0-10.1l-5.1,3.9
	c0,0-8.6,4.7-12.8,3.9L715.6,570z"/>
<path class="st19" d="M725.4,344.2c0,0,18.7,2,16-5.8c-0.8-2.2-1-4.6-0.6-6.9c0.5-2.9,1.6-5.6,3.3-7.9l-17.5,2.7
	c1.1,1.8,1.9,3.7,2.4,5.6C731,340.2,725.4,344.2,725.4,344.2z"/>
<path class="st21" d="M757.3,432.9c0,0-0.4,16.7-4.3,24.9l-0.8,23.8c0,0,1.2,21.8,3.5,26.1s-5.1,40.5-5.1,40.5v6.2
	c0,0-12.5,4.7-16-0.8l3.5-46.3l-1.6-64.2L757.3,432.9z"/>
<path class="st2" d="M757.3,432.9c0,0-0.4,16.7-4.3,24.9l-0.8,23.8c0,0,1.2,21.8,3.5,26.1s-5.1,40.5-5.1,40.5v6.2
	c0,0-12.5,4.7-16-0.8l3.5-46.3l-1.6-64.2L757.3,432.9z"/>
<path class="st22" d="M765.1,379.2l2.3,6.2l2,13.2c0.5,3.7-0.8,7.5-3.5,10.1c-4.7,4.7-10.9,14.4-10.9,14.4l-7.4-22.2
	c0,0,7.4-1.2,6.2-6.2s-0.8-14.4-0.8-14.4L765.1,379.2z"/>
<path class="st23" d="M765.2,379.1l2.3,6.2l2,13.2c0.5,3.7-0.8,7.5-3.5,10.1c-4.7,4.7-10.9,14.4-10.9,14.4l-7.4-22.2
	c0,0,7.4-1.2,6.2-6.2s-0.8-14.4-0.8-14.4L765.2,379.1z"/>
<path class="st2" d="M730.5,557.9c5,7.9,12.8,3.4,14.2,2.5l-0.6-1.7l-11.3-3.2C732.2,556.5,731.4,557.3,730.5,557.9z"/>
<path class="st21" d="M714.9,448.1c0.4,5.4,7,25.3,7,25.3l4.7,16.3c3.3,11.6,5.1,23.5,5.1,35.5c-0.1,3.8,0.4,7.6,1.5,11.2
	c3.1,8.6-3.1,20.2-3.1,20.2c5.5,9.7,14.8,3.1,14.8,3.1v-6.2c0,0,7.4-33.9,5.5-40.5c-2-6.6-2.7-24.5-2.7-24.5v-32.3
	c6.2-6.2,10-14.5,10.7-23.2c0.1-1.3,0.2-2.6,0.2-4c0.3-8.8-5.7-19.1-8-22.8c-0.6-0.9-0.9-1.4-0.9-1.4l-34.4,13.6h-0.1v1.3v2.9
	L714.9,448.1z"/>
<path class="st2" d="M726.5,326.3c1.1,1.8,1.9,3.7,2.4,5.6c3.8,1.5,8.1,1.3,11.8-0.4c0.5-2.9,1.6-5.6,3.3-7.9L726.5,326.3z"/>
<circle class="st19" cx="734.3" cy="316.9" r="15.2"/>
<path class="st2" d="M714.9,422.8h0.2c16.3,3.4,36.8-13.6,36.8-13.6c-0.5-0.9-1-1.9-1.4-2.9c-0.6-0.9-0.9-1.4-0.9-1.4l-34.4,13.6
	l-0.1,1.4L714.9,422.8z"/>
<path class="st24" d="M719.2,343.8c0,0,21.8-13.2,28.8-7.8l9.7,12.5c0,0,6.2,2,5.1,14.5l4.7,22.6l-14,3.5c0,0-8.2,7.8-1.5,19.1
	c0,0-20.6,17.1-37,13.6l1.2-18.3c0,0,3.5-10.1-2.7-19.5s-0.4-18.3,5.5-21.8C718.8,362.1,721.5,347.3,719.2,343.8z"/>
<path class="st19" d="M718,423.2c0,0-8.2,1.6-12.1,7.8c-1.1,1.9-2.5,3.6-4.1,5.1c-1.3,1.1-1.3,3.1-0.2,4.4c0.2,0.2,0.4,0.4,0.7,0.6
	c3.1,1.9,8.1,3,14.5-2.2C727.8,429.8,718,423.2,718,423.2z"/>
<path class="st2" d="M730,351.2c0,0,7.8-0.8,9.7,19.5s5.1,24.9,5.1,24.9s2,10.5-2.7,16.7s-13.6,19.5-13.6,19.5s-9.7,2.7-11.7-7
	l12.1-22.6c0,0,1.9-7.8-2.7-13.2S718,347.3,730,351.2z"/>
<path class="st24" d="M729.3,350c0,0,7.8-0.8,9.7,19.5s5.1,24.9,5.1,24.9s2,10.5-2.7,16.7s-13.6,19.5-13.6,19.5s-9.7,2.7-11.7-7
	l12.1-22.6c0,0,2-7.8-2.7-13.2S717.2,346.1,729.3,350z"/>
<path class="st2" d="M722.8,364.6c0,0-0.8,12.1,2.7,18.7s3.5,15.2,0,19.9"/>
<path class="st2" d="M720.9,349.8c0,0,3.1-3.1,12.1-3.5s12.8-3.1,12.8-3.1"/>
<path class="st2" d="M742.5,297.3c2.4,0.3,5.1,1.1,5.9,3.3c0.2,0.8,0.4,1.7,0.5,2.6c0.9,3.4,4.7,5,7.1,7.6c2.1,2.3,3,5.4,3.7,8.4
	c1.9,8.7,2.4,17.6,1.4,26.5c-0.8,6.5-2.3,12.8-2.8,19.3s0.4,13.3,3.9,18.8c1.5,2.3,3.5,4.4,4.6,7c-2.2,1.8-5.3,2.1-8.2,2.2
	c-3.3,0.1-6.7,0.1-10,0c-1.8,0.1-3.5-0.3-5.1-1.1c-1.1-0.7-2-1.7-2.7-2.9c-1.9-3.2-2.4-7.2-2.3-10.9s0.7-7.5,0.8-11.3
	c0.2-2.1-0.3-4.1-1.3-5.9c-1-1.1-2.1-2.1-3.3-3c-4.2-3.7-5.6-9.6-5.7-15.2s0.8-11.1,0.3-16.7c-0.2-2.2-1-4.8-3.1-5.2
	c-0.7,0-1.3-0.1-2-0.3c-1.7-0.7-1.5-3.1-2-4.8c-0.5-2-2.2-3.5-2.7-5.5c-1.1-4.7,4.9-10.3,8.8-12S738.3,296.8,742.5,297.3z"/>
<path class="st25" d="M742.9,296.5c2.4,0.3,5.1,1.1,5.9,3.3c0.2,0.8,0.4,1.7,0.5,2.6c0.9,3.4,4.7,5,7.1,7.6c2.1,2.3,3,5.4,3.7,8.4
	c1.9,8.7,2.4,17.6,1.4,26.5c-0.8,6.5-2.3,12.8-2.7,19.3s0.4,13.3,3.9,18.8c1.5,2.4,3.5,4.4,4.6,7c-2.2,1.8-5.3,2.1-8.2,2.2
	c-3.3,0.1-6.7,0.1-10,0c-1.8,0.1-3.5-0.3-5.1-1.1c-1.1-0.7-2-1.7-2.7-2.9c-1.9-3.2-2.4-7.2-2.3-10.9s0.7-7.5,0.8-11.3
	c0-2.1-0.1-4.2-1.3-5.9c-1-1.1-2.1-2.1-3.3-3c-4.2-3.7-5.6-9.6-5.7-15.2s0.8-11.1,0.3-16.7c-0.2-2.2-1-4.8-3.1-5.2
	c-0.7,0-1.3-0.1-2-0.3c-1.7-0.7-1.5-3.1-2-4.8c-0.5-2-2.2-3.5-2.7-5.5c-1.1-4.7,4.9-10.3,8.8-12S738.8,296,742.9,296.5z"/>
<circle class="st0" cx="961.3" cy="83.6" r="21.6"/>
<circle class="st0" cx="834" cy="18.2" r="16"/>
<path class="st26" d="M889.6,646.4c0,0,4,5.2-1.8,13.2s-10.7,14.6-8.7,19.5c0,0,8.8-14.7,16-14.9S897.5,655.2,889.6,646.4z"/>
<path class="st2" d="M889.6,646.4c0.3,0.5,0.6,1.1,0.8,1.7c7,8.2,10.8,15.9,4,16.1c-6.3,0.2-13.8,11.4-15.6,14.2
	c0.1,0.2,0.1,0.4,0.2,0.6c0,0,8.8-14.7,16-14.9S897.5,655.2,889.6,646.4z"/>
<path class="st14" d="M897.1,653.1c0,1.8-0.2,3.3-0.5,3.3s-0.5-1.5-0.5-3.3s0.3-1,0.5-1S897.1,651.2,897.1,653.1z"/>
<path class="st14" d="M899.6,655.3c-1.6,0.9-3,1.4-3.2,1.2s1.1-1.1,2.7-2s1-0.2,1.1,0S901.2,654.4,899.6,655.3z"/>
<path class="st26" d="M868.5,646.4c0,0-4,5.2,1.8,13.2s10.7,14.6,8.7,19.5c0,0-8.8-14.7-16-14.9S860.5,655.2,868.5,646.4z"/>
<path class="st2" d="M868.5,646.4c-0.3,0.5-0.6,1.1-0.8,1.7c-7,8.2-10.8,15.9-4,16.1c6.3,0.2,13.8,11.4,15.6,14.2
	c-0.1,0.2-0.1,0.4-0.2,0.6c0,0-8.8-14.7-16-14.9S860.5,655.2,868.5,646.4z"/>
<path class="st14" d="M861,653.1c0,1.8,0.2,3.3,0.5,3.3s0.5-1.5,0.5-3.3s-0.3-1-0.5-1S861,651.2,861,653.1z"/>
<path class="st14" d="M858.5,655.3c1.6,0.9,3,1.4,3.2,1.2s-1.1-1.1-2.7-2s-1-0.2-1.1,0S856.8,654.4,858.5,655.3z"/>
<path class="st15" d="M862.3,678.4c0,0,11.2-0.3,14.6-2.8s17.2-5.3,18.1-1.4s16.8,19.2,4.2,19.3s-29.4-2-32.7-4
	S862.3,678.4,862.3,678.4z"/>
<path class="st16" d="M899.3,692.1c-12.7,0.1-29.4-2-32.8-4c-2.6-1.6-3.6-7.2-3.9-9.8h-0.4c0,0,0.7,9,4.1,11.1s20.1,4.1,32.7,4
	c3.7,0,4.9-1.3,4.8-3.2C903.5,691.4,902,692.1,899.3,692.1z"/>
<path class="st1" d="M945.1,595.1c1.3-2.3,2-4.8,1.9-7.4c0-6.7-4.1-12.1-9.3-12.1c-5.1,0-9.3,5.4-9.3,12.1c0,2.6,0.6,5.2,1.9,7.4
	c-2.6,4.6-2.6,10.2,0,14.8c-2.6,4.6-2.6,10.2,0,14.8c-2.6,4.6-2.6,10.2,0,14.8c-1.3,2.3-2,4.8-1.9,7.4c0,6.7,4.1,12.1,9.3,12.1
	s9.3-5.4,9.3-12.1c0-2.6-0.6-5.2-1.9-7.4c2.6-4.6,2.6-10.2,0-14.8c2.6-4.6,2.6-10.2,0-14.8C947.7,605.3,947.7,599.7,945.1,595.1
	L945.1,595.1z"/>
<ellipse class="st1" cx="931.2" cy="556.7" rx="12.3" ry="16.1"/>
<ellipse class="st1" cx="931.2" cy="537.1" rx="12.3" ry="16.1"/>
<path class="st26" d="M903.1,456.8c-1.3-1.6-2.4-3.3-3.4-5.1l24.3-4l-26.3,0.2c-5.1-11.1-5.4-23.8-0.8-35.1l35.3,18.3l-32.5-23.9
	c12.2-21.2,39.4-28.5,60.6-16.2c21.2,12.2,28.5,39.4,16.2,60.6c-1.1,1.8-2.3,3.6-3.6,5.3c2,2.5,3.7,5.2,5.1,8.1l-31.6,16.4
	l33.7-11.3c4.8,14.2,2.1,29.9-7.1,41.6c15.1,19.2,11.8,47.1-7.4,62.2s-47.1,11.8-62.2-7.4c-12.7-16.1-12.7-38.7,0-54.8
	C890.5,495.5,890.5,472.9,903.1,456.8L903.1,456.8z"/>
<path class="st2" d="M984.3,484.2c0,9.9-3.3,19.6-9.5,27.4c15.1,19.2,11.8,47.1-7.4,62.2s-47.1,11.8-62.2-7.4
	c-12.7-16.1-12.7-38.7,0-54.8C899.2,504,984.3,479.2,984.3,484.2z"/>
<ellipse class="st2" cx="149.5" cy="671" rx="44.9" ry="7.6"/>
<path class="st26" d="M205,606.2c0,45.6-24.8,61.5-55.5,61.5c-0.7,0-1.4,0-2.1,0c-1.4,0-2.8-0.1-4.2-0.2
	c-27.7-2.1-49.2-18.8-49.2-61.2c0-43.8,51.4-99.2,55.2-103.3c0,0,0,0,0,0c0.1-0.2,0.2-0.2,0.2-0.2S205,560.6,205,606.2z"/>
<ellipse class="st2" cx="638.3" cy="745" rx="44.9" ry="7.6"/>
<path class="st13" d="M645.7,717.7c-7.4,9.7-6.6,22.8-6.6,22.8s12.9-2.6,20.3-12.3c7.4-9.7,6.6-22.8,6.6-22.8S653.1,708,645.7,717.7
	z"/>
<path class="st26" d="M649.2,724.1C647.7,736.2,638,745,638,745s-7.4-10.9-6-23s11.2-20.9,11.2-20.9S650.6,711.9,649.2,724.1z"/>
<ellipse class="st2" cx="372.4" cy="545.3" rx="28.4" ry="4.8"/>
<path class="st13" d="M376.1,530.7c-4.7,6.1-4.2,14.4-4.2,14.4s8.1-1.7,12.8-7.8s4.2-14.4,4.2-14.4S380.8,524.6,376.1,530.7z"/>
<path class="st26" d="M379.2,532.1c-0.9,7.7-7.1,13.2-7.1,13.2s-4.7-6.9-3.8-14.5s7.1-13.2,7.1-13.2S380.1,524.4,379.2,532.1z"/>
<ellipse class="st2" cx="636.1" cy="546.8" rx="58.6" ry="9.9"/>
<path class="st13" d="M317.4,713.4c-0.5-0.4-0.9-1-1.1-1.6c-0.2-0.7,0.1-1.3,0.8-1.6c0.7-0.3,1.4,0.2,2,0.7c0.5,0.6,1.2,0.9,1.9,0.9
	c-0.8-0.7-1.1-1.7-0.9-2.7c0-0.2,0.1-0.4,0.3-0.6c0.4-0.4,1.1-0.2,1.5,0.1c1.5,1,1.9,3,1.9,4.8c0.1-0.7,0.1-1.3,0-2
	c-0.1-0.7,0.2-1.3,0.7-1.7c0.3-0.2,0.7-0.3,1.1-0.3c0.7-0.1,1.3,0.1,1.8,0.5c0.5,0.7,0.5,1.6-0.1,2.2c-0.5,0.6-1.2,1.1-1.9,1.5
	c-0.5,0.3-1,0.8-1.4,1.3c0,0.1-0.1,0.1-0.1,0.2h-4.1C319,714.7,318.1,714.1,317.4,713.4z"/>
<path class="st13" d="M741,671.3c-0.5-0.4-0.9-1-1.1-1.6c-0.2-0.7,0.1-1.3,0.8-1.6c0.7-0.1,1.5,0.1,2,0.7c0.5,0.6,1.2,0.9,1.9,0.9
	c-0.8-0.7-1.1-1.7-0.9-2.7c0-0.2,0.1-0.4,0.3-0.5c0.4-0.4,1.1-0.2,1.5,0.1c1.5,1,1.8,3,1.9,4.8c0.1-0.7,0.1-1.3,0-2
	c-0.1-0.7,0.2-1.3,0.7-1.7c0.3-0.2,0.7-0.3,1.1-0.3c0.7-0.1,1.3,0.1,1.8,0.5c0.5,0.7,0.5,1.6-0.1,2.2c-0.5,0.6-1.2,1.1-1.9,1.5
	c-0.5,0.3-1,0.8-1.3,1.3c0,0.1-0.1,0.1-0.1,0.2h-4.1C742.6,672.6,741.8,672,741,671.3z"/>
<path class="st13" d="M775.1,644.1c-0.5-0.4-0.9-1-1.1-1.6c-0.2-0.7,0.1-1.3,0.8-1.6c0.7-0.3,1.4,0.2,2,0.7c0.5,0.6,1.2,0.9,1.9,0.9
	c-0.8-0.7-1.1-1.7-0.9-2.7c0-0.2,0.1-0.4,0.2-0.6c0.4-0.4,1.1-0.2,1.5,0.1c1.5,1,1.9,3,1.9,4.8c0.1-0.7,0.1-1.3,0-2
	c-0.1-0.7,0.2-1.3,0.7-1.7c1-0.4,2.1-0.3,3,0.2c0.5,0.7,0.5,1.6-0.1,2.2c-0.5,0.6-1.2,1.1-1.9,1.5c-0.5,0.3-1,0.8-1.4,1.3
	c0,0.1-0.1,0.2-0.1,0.2h-4.1C776.8,645.4,775.9,644.8,775.1,644.1z"/>
<path class="st4" d="M399.3,54.3c0,28.5,17.9,51.6,40,51.6"/>
<path class="st4" d="M439.3,105.9c0-28.8,20-52.2,44.7-52.2"/>
<path class="st4" d="M413.8,56.9c0,27.1,11.4,49,25.5,49"/>
<path class="st4" d="M439.3,105.9c0-36.9,23.1-66.7,51.6-66.7"/>
<path class="st15" d="M430.9,106.3c0,0,5.7-0.2,7.4-1.4c1.7-1.2,8.7-2.7,9.2-0.7s8.5,9.7,2.1,9.8c-6.4,0.1-14.9-1-16.6-2
	C431.3,110.9,430.9,106.3,430.9,106.3z"/>
<path class="st16" d="M449.7,113.3c-6.4,0.1-14.9-1-16.6-2c-1.3-0.8-1.8-3.6-2-4.9c-0.1,0-0.2,0-0.2,0s0.4,4.6,2.1,5.6
	c1.7,1,10.2,2.1,16.6,2c1.8,0,2.5-0.7,2.5-1.6C451.8,112.9,451.1,113.2,449.7,113.3z"/>
<ellipse class="st3" cx="472.4" cy="191.7" rx="68.8" ry="9.4"/>
<ellipse class="st2" cx="472.4" cy="191.7" rx="57.8" ry="7.9"/>
<ellipse class="st3" cx="513.6" cy="273.1" rx="62.6" ry="8.5"/>
<path class="st27" d="M513.3,130.8c0,0,47.9-13.3,50.8,29.4s-39.4,54.8-6.3,63.3"/>
<path class="st27" d="M467,233.3c0,0,14.4-4,15.3,8.9c0.9,12.8-11.8,16.5-1.9,19"/>
<rect x="439.3" y="94" class="st28" width="76.6" height="89.1"/>
<rect x="431.6" y="85.2" class="st24" width="92" height="31.7"/>
<rect x="431.6" y="122.7" class="st24" width="92" height="31.7"/>
<rect x="431.6" y="160.3" class="st24" width="92" height="31.7"/>
<rect x="499.3" y="90.7" class="st29" width="5.9" height="5.9"/>
<rect x="507.8" y="90.7" class="st30" width="5.9" height="5.9"/>
<rect x="516.2" y="90.7" class="st13" width="5.9" height="5.9"/>
<rect x="499.3" y="127.9" class="st29" width="5.9" height="5.9"/>
<rect x="507.8" y="127.9" class="st30" width="5.9" height="5.9"/>
<rect x="516.2" y="127.9" class="st13" width="5.9" height="5.9"/>
<rect x="499.3" y="165.1" class="st31" width="5.9" height="5.9"/>
<rect x="507.8" y="165.1" class="st32" width="5.9" height="5.9"/>
<rect x="516.2" y="165.1" class="st4" width="5.9" height="5.9"/>
<circle class="st26" cx="515.9" cy="233.5" r="29.1"/>
<rect x="502.6" y="256.3" class="st26" width="8.8" height="15.8"/>
<rect x="520.3" y="256.3" class="st26" width="8.8" height="15.8"/>
<ellipse class="st26" cx="510" cy="272.4" rx="7.4" ry="2.8"/>
<ellipse class="st26" cx="527.6" cy="272" rx="7.4" ry="2.8"/>
<circle class="st33" cx="516.6" cy="226.2" r="9.9"/>
<circle class="st1" cx="516.6" cy="226.2" r="3.3"/>
<path class="st13" d="M487.6,206.5c-2.3-10.5,5.2-21.1,16.8-23.7s22.9,3.8,25.3,14.3s-5.3,14.4-17,17
	C501.1,216.7,490,217,487.6,206.5z"/>
<ellipse transform="matrix(0.9193 -0.3935 0.3935 0.9193 -44.2869 231.0354)" class="st26" cx="541.3" cy="223.5" rx="14.5" ry="4.6"/>
<ellipse transform="matrix(0.9193 -0.3935 0.3935 0.9193 -56.3583 211.1724)" class="st26" cx="486.9" cy="243" rx="14.5" ry="4.6"/>
<text transform="matrix(1.1747 0 0 1 407.8933 654.4)" class="st34 st35 st36">500</text>
<path class="st33" d="M532.8,242c0,2.8-7.3,8.5-15.5,8.5c-8.1,0-15.8-5.3-15.8-8.1c0-2.8,7.7-2.2,15.8-2.2
	C525.5,240.2,532.8,239.1,532.8,242z"/>
<title>directions</title>
<path class="st1" d="M148.6,658l20.4-28.6l-20.5,31.7l-0.1,3.3c-1.4,0-2.8-0.1-4.2-0.2l2.2-42.1l0-0.3l0-0.1l0.2-4l-20.6-31.8
	l20.6,28.8l0.1,0.8l1.6-31.8l-17.6-32.8l17.8,27.2l1.7-66l0-0.2l0,0.2l-0.3,52l17.5-20.6L150,568.7l-0.4,28.5l16.3-27.4l-16.4,31.5
	l-0.2,15.8l23.7-38.1l-23.8,43.6L148.6,658z"/>
</svg>
